<svg xmlns="http://www.w3.org/2000/svg" width="436.313" height="332.43" viewBox="0 0 436.313 332.43">
  <g id="_14" data-name="14" transform="matrix(0.966, 0.259, -0.259, 0.966, 38.581, 0)">
    <path id="Fill_489" data-name="Fill 489" d="M6.761,104.05a1.012,1.012,0,0,1-.9-.439,1.542,1.542,0,0,1,.056-1.466A1.838,1.838,0,0,0,6.1,100.6a1.9,1.9,0,0,0-1.316-.91C2.373,98.99.748,97.642.2,95.9c-.581-1.868.085-4.1,1.875-6.3,2.708-3.315,5.49-6.661,8.18-9.9,2.5-3.006,5.076-6.105,7.589-9.174,4.743-5.794,10.245-12.534,15.507-19.21a23.934,23.934,0,0,1,6.022-5.865,9.087,9.087,0,0,1,4.5-1.4,3.7,3.7,0,0,1,3.516,1.974,36.406,36.406,0,0,0,3.846,5.528c2.178,2.751,4.43,5.6,5.193,9.241.352,1.683.877,2.466,1.652,2.466A5.538,5.538,0,0,0,60.7,61.829l.054-.041c11.5-8.689,25.078-18.413,40.743-23.83.14-.048.282-.108.408-.161.154-.064.311-.131.469-.18,5.315-1.7,9.158-2.5,12.092-2.5,7.636,0,10.114,5.205,15.051,15.576.621,1.3,1.069,2.407,1.429,3.293.748,1.842,1.124,2.766,1.919,2.766.836,0,2.155-1.054,4.784-3.153l.079-.063,1-.8c2.8-2.226,5.544-4.614,8.2-6.924A134.751,134.751,0,0,1,162.1,33.851l.368-.237c5.784-3.728,11.764-7.583,18.968-7.583a21.1,21.1,0,0,1,3.19.246c6.735,1.037,11.37,5.509,15.185,9.62,3.08,3.319,6.245,4.932,9.676,4.932,3.318,0,6.934-1.551,11.055-4.741,4.62-3.576,9.12-7.466,13.473-11.228,2.935-2.536,5.964-5.155,9-7.656,3.9-3.208,7-4.7,9.781-4.7,3.708,0,7.058,2.552,11.2,8.532.61.88,1.169,1.821,1.711,2.731a31.464,31.464,0,0,0,2.625,3.947c2.317,2.817,5.009,4.245,8,4.245a13.155,13.155,0,0,0,6.2-1.779c1.583-.855,3.221-1.669,4.8-2.456A72.014,72.014,0,0,0,297.8,21.766a4.038,4.038,0,0,0,.5-.475c.364-.384.74-.781,1.185-.781a1.278,1.278,0,0,1,.956.638c.733.976.131,2.008-.4,2.919l-.077.132-.02.034c-1.478,2.552-1.478,2.552,1.305,6.014a8.292,8.292,0,0,1,1.018-4.215c.813-1.826,1.581-3.55-.1-5.765a1.032,1.032,0,0,1-.256-.838c.117-.58.884-1.024,1.626-1.454a6.015,6.015,0,0,0,1.309-.908A114.706,114.706,0,0,1,323.875,1.1,6.7,6.7,0,0,1,327.734,0a15.716,15.716,0,0,1,6.334,1.631c.418.192,1.743.92,1.244,2.245-.182.488-.425.716-.764.716a2.032,2.032,0,0,1-.76-.228l-.023-.01a2.021,2.021,0,0,0-.732-.214l-.062,0-.295.022-.022,0a3.406,3.406,0,0,0-2.824,1.213c.406.344.806.7,1.193,1.052,2.058,1.85,3.991,3.587,7.137,3.76,2.162.116,2.069,2.11,2,3.567a8.516,8.516,0,0,0-.014.867c.156,2.385,1.461,3.486,2.842,4.652.373.315.759.641,1.13,1,.352.339.663.7.964,1.052.832.97,1.618,1.886,2.994,1.886a4.647,4.647,0,0,0,1.619-.334,2.029,2.029,0,0,1,.712-.118,3.894,3.894,0,0,1,3.4,2.389,2.01,2.01,0,0,1-1.417.648,3.982,3.982,0,0,1-1.744-.595A6.371,6.371,0,0,0,349.5,24.7c-.3,1.509-.1,2.554.625,3.192a5.441,5.441,0,0,0,2.547.948c.433.087.88.176,1.287.3a6.879,6.879,0,0,0,.812.176c.942.166,1.916.337,2.055,1.679.109,1.038-.537,1.191-1.221,1.353-.6.142-1.221.289-1.462,1,1.931.524,3.086,1.356,3.166,2.276.072.822-.721,1.646-2.293,2.382a2.64,2.64,0,0,0-1.462,2.546c-.106.992-.206,1.93-1.562,2.314a6.536,6.536,0,0,0-1.266-3.627c-.186-.319-.378-.648-.555-.982-1.393.636-1.047,1.519-.711,2.372a2.085,2.085,0,0,1,.2,1.627l-.037,0-.123,0a3.487,3.487,0,0,1-2.253-1.107l-.02-.017a3.4,3.4,0,0,0-2.151-1.089,2.845,2.845,0,0,0-1.272.338,5.915,5.915,0,0,1,1.439-1.844c.645-.644,1.2-1.2,1.04-1.6s-1.07-.613-2.85-.643a3.245,3.245,0,0,1-1.9-1.032,3.475,3.475,0,0,0-2.132-1.112,2.771,2.771,0,0,0-1.728.746.465.465,0,0,1-.285.124c-.5,0-.641-1.316-.652-1.668a5.7,5.7,0,0,0-5.773-5.749h-.171c-.656,0-1.354-.07-2.093-.144l-.065-.006c-.688-.069-1.468-.148-2.227-.148-1.875,0-4.168.437-5.272,3.843a7.006,7.006,0,0,1-2.435,2.793c-.249.2-.488.4-.713.6-.328.284-.676.542-1.012.791-1.451,1.074-2.82,2.088-2.083,4.935a3,3,0,0,1-.677,2.453,3.815,3.815,0,0,1-3.037,1.479,4.739,4.739,0,0,1-1.271-.182,7.331,7.331,0,0,0-1.945-.3,3.154,3.154,0,0,0-2.4.9,4.222,4.222,0,0,0-.877,3.248c.039.674-.025,1.075-.2,1.262a.54.54,0,0,1-.425.146c-.087,0-.18-.008-.277-.016-.12-.011-.228-.021-.341-.021a1.272,1.272,0,0,0-.551.11,5.9,5.9,0,0,1-2.481.464,21.012,21.012,0,0,1-2.139-.149,20.739,20.739,0,0,0-2.137-.15,5.151,5.151,0,0,0-4.672,2.417c-.131.195-.26.38-.382.558-.694,1.005-1.194,1.729-.954,2.214.215.435,1.039.663,2.67.74-1.465.438-2.959.873-4.4,1.294-3.277.955-6.665,1.943-9.961,3.03a6.078,6.078,0,0,1-1.893.328c-1.747,0-3.2-.887-4.706-2.877a6.694,6.694,0,0,1-.436-.682c-.382-.657-.713-1.224-1.725-1.224a3.993,3.993,0,0,0-.8.093,2.712,2.712,0,0,1-.537.054c-1.81,0-3.328-1.872-3.836-3.633a17.418,17.418,0,0,0-3.687-6.119c-.535-.657-1.087-1.337-1.6-2.039a4.771,4.771,0,0,0-3.714-2.338,4.331,4.331,0,0,0-3.305,1.847,61.146,61.146,0,0,1-7.74,7.539,52.841,52.841,0,0,0-8.678,8.781,7.307,7.307,0,0,1-3.087,2.1c-1.814.828-3.689,1.685-3.737,4.405-.374-.024-.758-.074-1.129-.122a12.724,12.724,0,0,0-1.592-.138,4.4,4.4,0,0,0-.873.079c-2.547.5-5.091,1.231-7.69,1.994a7.007,7.007,0,0,1-1.925.346c-1.562,0-2.331-1.042-2.494-3.378-.37,2.742-1.337,3.965-3.127,3.965a8.48,8.48,0,0,1-2.67-.57,5.175,5.175,0,0,0-1.084-.2c-.913-.1-1.775-.2-1.711-1.263a2.586,2.586,0,0,1,2.285-2.013,2.05,2.05,0,0,1,.885.211,4.113,4.113,0,0,0,1.624.495.861.861,0,0,0,.655-.244,1.706,1.706,0,0,0,.314-1.251c-.031-.891-.394-1.324-1.111-1.324a4.585,4.585,0,0,0-1.257.256,4.638,4.638,0,0,1-.57.15,19.259,19.259,0,0,1-2.878.228c-5.123,0-9-2.383-11.858-7.285a4.62,4.62,0,0,0-4.153-2.339,6.231,6.231,0,0,0-2.364.484c-8.156,3.369-15.872,6.91-20.63,13.157a37.141,37.141,0,0,1-5.76,5.689,40.664,40.664,0,0,0-4.912,4.677,26.545,26.545,0,0,1-4.266,3.788,22.575,22.575,0,0,0-5.362,5.168c-.975,1.45-3.494,2.316-6.738,2.316-3.114,0-6.937-.9-8.458-2.916a63.5,63.5,0,0,0-5.409-6.014c-3.681-3.758-7.487-7.642-9.1-13.072-.328-1.1-.877-1.637-1.677-1.637a4.228,4.228,0,0,0-2.018.723q-1.416.822-2.827,1.651c-1.728,1.013-3.515,2.06-5.287,3.063-.283.16-.557.345-.822.525a4.2,4.2,0,0,1-2.36.978,3.262,3.262,0,0,1-1.443-.37,2.274,2.274,0,0,0-.984-.256c-1.023,0-1.628.946-2.213,1.861a9.518,9.518,0,0,1-.644.928,2.427,2.427,0,0,0-.285,1.317c-.029.589-.056,1.145-.441,1.145a.47.47,0,0,1-.06,0,5.77,5.77,0,0,0-.776-.056c-2.3,0-3.2,1.636-4.059,3.218a6.573,6.573,0,0,1-2.169,2.721l-.123.071a4.049,4.049,0,0,1-2.541.854c-.476,0-1.109-.04-1.986-.1l-.083-.005-.08,0c-.9,0-1.973.924-2.685,1.535A54.156,54.156,0,0,1,59.449,96.49a8.83,8.83,0,0,1-2.444.394,4.514,4.514,0,0,1-4.2-2.71c-1.757-3.2-4.376-5.637-6.909-7.989-1.324-1.23-2.693-2.5-3.921-3.868-.747-.835-1.3-1.192-1.832-1.192-.564,0-1.117.4-1.743,1.263A59.267,59.267,0,0,1,22.226,97.656a3.2,3.2,0,0,0-1.05,1.881c-.286.94-.583,1.911-1.6,2.155-4.343,1.043-8.783,1.768-12.554,2.338A1.724,1.724,0,0,1,6.761,104.05ZM113.743,63.318a18.624,18.624,0,0,0-11.164,6.277q5.505-3.1,11.01-6.191l.154-.086h0Zm-2.628-20.979c-5.886,0-11.523,2.2-17.234,6.72l9.088-2.772,8.975-2.737c-.106-.324-.209-.65-.313-.975l-.073-.232Q111.336,42.339,111.115,42.339Zm187.319-3.527a.273.273,0,0,0-.255.1c-.078.13-.01.4.21.814a2.394,2.394,0,0,0,1.443.685c.047,0,.065-.01.071-.018a8.4,8.4,0,0,1,2.814-2.184c1.906-1.1,3.877-2.233,4.247-5.464-1.04.853-2.006,1.639-2.923,2.384-1.628,1.323-3.1,2.519-4.583,3.72a.374.374,0,0,1-.231.058,2.484,2.484,0,0,1-.376-.043l-.023,0A2.386,2.386,0,0,0,298.434,38.812Zm-10.216-5.444a44.742,44.742,0,0,0-4.246,1.413,19.676,19.676,0,0,1-6.157,1.577,2.786,2.786,0,0,0-2.1.654,1.162,1.162,0,0,0-.217.964c.167,1.079,1.452,1.163,2.586,1.237l.1.007c.281.019.559.029.828.029,3.724,0,6.561-1.814,9.2-5.882Zm9.133-5.438c-.516.277-1.063.514-1.593.744-1.934.84-3.935,1.71-4.812,4.656a9.628,9.628,0,0,1,2.769-.48c1.391-.106,2.7-.206,3.389-1.124C297.663,30.977,297.743,29.735,297.35,27.93Zm18.211-7.881a2.159,2.159,0,0,1,.669.135c1.349.456,1.9,1.726,1.731,3.995.949-1.4,1.609-2.465,1.391-3.485-.161-.753-.8-1.452-2.009-2.2a9.437,9.437,0,0,0-1.366-.639c-1.56-.637-3.328-1.359-3.266-3.786a.246.246,0,0,0-.063-.186.372.372,0,0,0-.274-.087,2.425,2.425,0,0,0-1.222.475,1.373,1.373,0,0,1-.377.168c-.241.082-.49.167-.555.369-.052.161.02.376.22.658,2.216,3.129.71,5.275-2.234,7.536a2.628,2.628,0,0,1,.605-.07,5.718,5.718,0,0,1,1.842.419,5.758,5.758,0,0,0,1.814.421,2.747,2.747,0,0,0,2.2-1.249,1.982,1.982,0,0,0,.2-1.155,1.727,1.727,0,0,1,.232-1.157A.614.614,0,0,1,315.561,20.049Z" transform="translate(0 0)" fill="#ffd7ca"/>
    <path id="Fill_491" data-name="Fill 491" d="M5.782,113.827A2.424,2.424,0,0,1,5.4,113.8c-1.114-.178-1.637-1.351-1.6-3.586.019-1.277-.849-1.842-1.768-2.44-1.061-.69-2.157-1.4-2.017-3.279a21.38,21.38,0,0,1,3.7-10.47c4-5.933,6.2-12.655,8.319-19.156.49-1.5.991-3.036,1.506-4.539.819-2.383,1.558-3.955,4.261-4.085q.221-.011.43-.011c2.282,0,3.456.974,5.079,3.02,3.313,4.169,5.034,8.767,6.855,13.635l.085.227c.834,2.226,2.3,3.354,4.367,3.354a6.414,6.414,0,0,0,1.146-.109c6.792-1.238,12.06-3.135,15.694-8.368C57.755,68.922,66.9,63,75.748,57.278q1.606-1.039,3.209-2.085a39.263,39.263,0,0,0,4.682-3.844c.678-.616,1.378-1.254,2.078-1.852a13.85,13.85,0,0,1,8.941-3.339l.211,0c3.06,0,5.108,1.517,6.849,5.073,2.927,5.977,5.63,8.306,9.642,8.306a22.273,22.273,0,0,0,7.672-1.826c2.432-.932,4.9-1.9,7.282-2.84,7.256-2.853,14.756-5.8,22.319-8.1,1.486-.451,2.963-1.039,4.391-1.606,3.045-1.211,6.194-2.462,9.7-2.523.232,0,.462-.006.691-.006,3.781,0,7.611.519,10.015,4.286a7.466,7.466,0,0,0,6.736,3.845,15.956,15.956,0,0,0,3.495-.449,146.249,146.249,0,0,0,31.786-11.149,148.653,148.653,0,0,1,23.886-9.59,24.8,24.8,0,0,1,6.782-1.044,14.91,14.91,0,0,1,10.839,4.357,12.752,12.752,0,0,0,9.352,3.871,22.362,22.362,0,0,0,4.971-.626C284.485,33.129,297,27.626,309.107,22.3l.885-.389c5.617-2.468,11.237-5.172,16.673-7.788,8.8-4.235,17.9-8.615,27.225-12.1.314-.117.627-.237.941-.357A18.972,18.972,0,0,1,361.5,0a9.14,9.14,0,0,1,3.609.735c-1.181,2.622-3.294,3.12-5.337,3.6-.36.085-.733.173-1.09.272A63.955,63.955,0,0,0,344.5,10.433l-.173.094c-.409.219-.968.52-1.077.956a.8.8,0,0,0,.152.644c.21.314.42.461.66.461a1.672,1.672,0,0,0,.813-.356,4.45,4.45,0,0,1,.622-.352c1.5-.652,2.984-1.418,4.423-2.158,3.956-2.036,8.043-4.14,12.771-4.14.275,0,.555.007.831.021q.109,0,.221,0c.273,0,.563-.02.813-.039.267-.018.543-.036.794-.036a1.576,1.576,0,0,1,1.309.446c.306.412.3,1.146-.035,2.243a.853.853,0,0,0,.02.676c.172.311.608.431,1.031.547a2.626,2.626,0,0,1,.834.329c.483.357,1.293,1.022,1.3,1.457a.307.307,0,0,1-.133.256,6.5,6.5,0,0,0-1.84,2.858c-.473,1.124-.92,2.186-1.885,2.579a108.981,108.981,0,0,0-20.806,11.224,74.026,74.026,0,0,1-7.6,4.409c-5.053,2.669-10.277,5.428-13.859,10.344-.124-.007-.253-.012-.389-.012-2.608,0-4.3,1.608-6.095,3.31l-.126.12c-1.693,1.611-3.611,3.436-6.588,3.437-.079,0-.159,0-.24,0l-.169,0c-2.808,0-5.062,2.222-7.241,4.37a32.128,32.128,0,0,1-2.561,2.355c-5.767,4.549-12.156,6.051-18.919,7.642l-.7.166a27.64,27.64,0,0,1-7.6,1.143c-6.222,0-11.75-2.574-16.431-7.65-1.74-1.89-3.347-2.809-4.912-2.809a4.146,4.146,0,0,0-1.275.2,49.878,49.878,0,0,1-8.272,1.673c-3.664.527-7.452,1.071-11.009,2.731-3.228,1.508-6.436,3.2-9.539,4.835-6.088,3.209-12.384,6.526-19.118,8.619-2.714.846-5.5,1.669-8.194,2.465-1.156.341-2.3.68-3.457,1.024a1.088,1.088,0,0,0,.1.885c.213.272.624.294,1.059.318.542.03,1.1.061,1.265.607a4.8,4.8,0,0,0-.449.213,1.879,1.879,0,0,1-.772.277.548.548,0,0,1-.105-.01c-1.458-.3-2.988-.5-4.469-.694-5.1-.674-10.374-1.37-13.815-6.036a10.794,10.794,0,0,0-3.1-2.605,11.1,11.1,0,0,1-2.889-2.36,1.213,1.213,0,0,0-.954-.278,14.688,14.688,0,0,0-4.754,1.222c-4.465,1.943-8.975,3.985-13.337,5.96-5.528,2.5-11.236,5.087-16.909,7.5a51.46,51.46,0,0,1-8.782,2.535c-.79.178-1.605.362-2.4.553a6.761,6.761,0,0,1-1.533.223,3.455,3.455,0,0,1-2.844-1.617l-.1-.132c-.749-.973-2-2.6-3.572-2.6a3.4,3.4,0,0,0-2.4,1.267c-.852-1-2.057-1.152-3.334-1.31-1.687-.208-3.431-.423-4.412-2.711-1-2.332-2.492-3.418-4.705-3.418a17.01,17.01,0,0,0-5.3,1.226c-3.115,1.108-5.415,3.247-7.639,5.315-2.143,1.993-4.359,4.054-7.257,5.1A4.516,4.516,0,0,0,75.037,88.7l-.095.239c-.341.864-.807,2.047-1.3,2.1-3.224.3-4.259,2.565-5.261,4.757a9.805,9.805,0,0,1-2.253,3.525l-.942.8c-4.128,3.529-8.4,7.177-13.936,8.659-1.76.469-1.793.55-2.624,2.623l-.142.353c-.188.467-1.2.739-1.532.828a9.536,9.536,0,0,1-2.474.386c-2.362,0-4.117-1.428-7.157-4.628a3.6,3.6,0,0,0-2.5-.552h-.274l-.39,0a9.61,9.61,0,0,1-1.2-.058c-3.072-.414-4.786-2.566-6.443-4.648a14.6,14.6,0,0,0-3.833-3.762,4.36,4.36,0,0,1-.715-.606c-.359-.347-.729-.705-1.011-.705-.16,0-.278.113-.362.344-.768,2.12-2.575,3.188-4.323,4.22-1.827,1.08-3.715,2.2-4.386,4.515a10.585,10.585,0,0,1-1.977,3.29c-.175.226-.34.439-.5.652C8.477,112.281,7.325,113.827,5.782,113.827Zm41.381-25.4h0c-1.3.509-2.545.871-3.753,1.222A20.536,20.536,0,0,0,36,92.975a23.712,23.712,0,0,0,3.034.225c3.8,0,6.156-1.383,8.126-4.774Zm86.8-11.156c-4.19.586-8.6,1.489-12.427,4.1a22.264,22.264,0,0,0,12.427-4.1ZM207.027,67.8,198.28,70.27l-.853.241-6.387,1.8a14.164,14.164,0,0,0,2.386.193,23.622,23.622,0,0,0,13.6-4.7h0ZM144.762,55.216l-.178.114c-5.71.144-10.94,2.3-16,4.38-4.4,1.809-8.939,3.68-13.78,4.227a2.57,2.57,0,0,0-1.8,1.019,1.363,1.363,0,0,0-.19,1.165,1.629,1.629,0,0,0,1.767,1.188A5.561,5.561,0,0,0,116,67.091c2.351-.626,4.71-1.4,6.991-2.153,2.71-.892,5.512-1.814,8.291-2.479,4.194-1,7.509-3.244,10.716-5.412.845-.571,1.714-1.159,2.588-1.717.044,0,.079,0,.114,0h.171l.069-.075.024-.026c.151,0,.3,0,.447,0,4.526,0,8.516-1.569,12.741-3.23,1.173-.461,2.382-.936,3.594-1.371A6.85,6.85,0,0,0,157.063,49c-3.936,0-8.573,2.386-12.1,6.226Zm134.344,8.055a1.664,1.664,0,0,1,1.519.971,15.981,15.981,0,0,1,6.187-3.1,17.662,17.662,0,0,0,5.691-2.669,85.626,85.626,0,0,1-10.792,3.064c-2.15.51-4.369,1.035-6.544,1.658a1.8,1.8,0,0,0,1.331.55,5.255,5.255,0,0,0,1.322-.235A5.184,5.184,0,0,1,279.106,63.271Zm-66.192-17h0a142.683,142.683,0,0,1-30.939,10.253,8.189,8.189,0,0,0,4.209.869c7.893,0,22.833-5.6,26.731-11.122ZM226,40.941h0a12.034,12.034,0,0,1-3.221,1.088c-2.508.6-5.1,1.211-5.57,4.976a17.836,17.836,0,0,1,3.511-2.039C222.7,44,224.759,43.01,226,40.941Zm55.226-.558q-6.093,1.3-12.179,2.589c.047.3.1.6.148.894l.077.455h.228a18.112,18.112,0,0,0,11.726-3.94Zm-40.078-5.057c-3.506,0-8.531,2.018-10.869,5.395,2.855-1.814,5.995-2.391,9.318-3a49.448,49.448,0,0,0,5.334-1.188A5.4,5.4,0,0,0,241.145,35.326Z" transform="translate(6.837 60.754)" fill="#ffd7ca"/>
    <path id="Fill_493" data-name="Fill 493" d="M48.907,94.465c-.243,0-.481-.3-.757-.649-.062-.078-.125-.157-.19-.237a1.939,1.939,0,0,0-1.414-.887,1.573,1.573,0,0,0-.681.171,18.867,18.867,0,0,1-6.753,1.3c-.5.036-.991.071-1.477.113-.812.07-1.579.106-2.281.106-5.687,0-8.543-2.313-9.55-7.735-.368-1.989-.95-2.838-1.946-2.838a5.324,5.324,0,0,0-1.6.39c-.356.123-.725.251-1.111.349.156-.378.351-.754.539-1.117.472-.912.917-1.773.581-2.372-.269-.481-1.029-.76-2.323-.854-1.784-.13-2.414-1.571-3.024-2.966a8.567,8.567,0,0,0-1-1.861c-.208-.262-.28-.448-.222-.568.083-.172.435-.187.759-.187h.189l.239,0a2.209,2.209,0,0,0,.684-.073l.047-.018c1.16-.434,2.475-.925,2.719-2.471-.582-.071-.849-.585-1.131-1.129-.313-.6-.636-1.225-1.423-1.225a2.421,2.421,0,0,0-.893.2,2.792,2.792,0,0,1-1.047.2,6.959,6.959,0,0,1-3.813-1.741c.859,2.282,0,4.093-.839,5.844a10.582,10.582,0,0,0-1.169,3.4c-.075.723-.222,1.461-.363,2.174a10.8,10.8,0,0,0-.2,5.017,1.839,1.839,0,0,1-.173,1.6.735.735,0,0,1-.569.318.673.673,0,0,1-.581-.4,8.845,8.845,0,0,0-2.742-2.681c-1.417-1.031-2.883-2.1-3.224-4.15-.205-1.244.391-1.539,1.082-1.88.079-.039.16-.079.241-.121a3.121,3.121,0,0,1,1.24-.152c.559,0,1.087,0,1.223-.255.075-.138.026-.339-.151-.616a9.23,9.23,0,0,1-1.154-5.381,18.736,18.736,0,0,0-.106-2.407,2.723,2.723,0,0,1-1.6.928c-.646,0-.929-.729-1.228-1.5S1.1,66.523.378,66.465c-.193-.015-.4-.651-.376-1.373.02-.522.2-1.738,1.467-1.738h.1a4.574,4.574,0,0,0,3.543-1.232c1.255-1.391,1.015-3.713.841-5.408l-.009-.087c-.4-3.952,1.379-5.921,4.594-7.986.743.389.711,1.218.68,2.019-.041,1.061-.084,2.158,1.659,2.264q.112.007.218.007c1.474,0,1.892-1.02,2.3-2.006a4.434,4.434,0,0,1,.8-1.433l.063-.065c.61-.623,1.369-1.4.664-2.379a1.2,1.2,0,0,0-1.029-.549,3.555,3.555,0,0,0-1.131.263c-.15.052-.292.1-.426.14a5.239,5.239,0,0,1-1.384.213,1.953,1.953,0,0,1-1.969-1.142,3.127,3.127,0,0,1,.314-2.875,25.08,25.08,0,0,0,2.745-3.934A16.735,16.735,0,0,1,18.5,33.724a6.26,6.26,0,0,1,3.4-1.334c1.734,0,2.907,1.406,3.394,4.066a2.374,2.374,0,0,0,.648,1.214c6.179,5.917,5.669,13.415,5.175,20.666-.056.823-.114,1.671-.161,2.5-.179,3.218-.243,5.078.526,5.892a1.991,1.991,0,0,0,1.539.509,22.589,22.589,0,0,0,4.666-.847c6.4-1.551,12.32-4.461,18.048-7.276,1.441-.708,2.927-1.438,4.4-2.134,1.362-.646,2.74-1.313,4.073-1.957,6.937-3.353,14.11-6.82,21.721-8.847a23.385,23.385,0,0,1,5.971-.842,15.239,15.239,0,0,1,12.583,6.336c1.569,2.036,3.247,2.984,5.282,2.984a10.338,10.338,0,0,0,3.723-.825c10.949-4.288,21.215-10.267,31.143-16.048q2.168-1.263,4.338-2.52a117.027,117.027,0,0,1,17.8-8.057,18.412,18.412,0,0,1,6.422-1.185,17.791,17.791,0,0,1,13.222,6.105,16.849,16.849,0,0,0,13.259,5.966,27.842,27.842,0,0,0,4-.307c19.819-2.87,38.775-9.452,55.5-15.26C275.695,16.788,293.3,9.929,314.574.937a10.38,10.38,0,0,1,3.152-.869c.362-.032.838-.068,1.314-.068,1.815,0,2.823.532,3.172,1.675.3.987-.625,1.451-1.6,1.942a6.159,6.159,0,0,0-1.226.734,4.407,4.407,0,0,1-1.217.625c-.634.251-1.29.51-1.5,1.009a1.237,1.237,0,0,0,.069.978,1.318,1.318,0,0,0,1.3.943,5.2,5.2,0,0,0,1.466-.322,5.7,5.7,0,0,1,1.385-.322,8.931,8.931,0,0,0,1.611-.314,8.491,8.491,0,0,1,1.842-.336.848.848,0,0,1,.811.34c.285.5-.074,1.584-1.1,3.311a1.373,1.373,0,0,0,.2,1.192c1.9,2.5,2.548,4.875,1.936,7.063-.694,2.479-3.012,4.558-6.7,6.012a91.288,91.288,0,0,0-13.765,6.925,192.115,192.115,0,0,1-18.41,9.43c-2.649,1.238-5.388,2.518-8.058,3.833a368.03,368.03,0,0,1-47.679,19.768,85.783,85.783,0,0,1-27.1,4.583c-.787,0-1.584-.012-2.369-.037-.286-.009-.59-.018-.881-.018a4.906,4.906,0,0,0-3.582,1.173,7.781,7.781,0,0,0,4.2,2.128c-.447-.079-.9-.146-1.344-.211-2.156-.317-4.385-.645-5.95-2.734a3.208,3.208,0,0,0-2.5-1.083c-.236-.028-.48-.057-.726-.1l-.335-.052c-1.072-.163-2.541-.386-3.051-1.346a2.788,2.788,0,0,1,.264-2.469,1.769,1.769,0,0,0,.123-.59c.008-.089.017-.178.03-.264a3.944,3.944,0,0,1-.965.137c-1.473,0-1.875-1.195-2.264-2.35-.334-.993-.65-1.931-1.587-2.179a14.982,14.982,0,0,1-7.21-4.448,4.869,4.869,0,0,0-3.718-1.4,12.527,12.527,0,0,0-1.9.165,5.305,5.305,0,0,0-1.411.538,3.821,3.821,0,0,1-1.492.514c-.736,0-1.139-.738-1.268-2.323a2.8,2.8,0,0,0-.978-.118,2.519,2.519,0,0,0-.719.085,1.147,1.147,0,0,0-.746.674,1.555,1.555,0,0,0,.158,1.279,3.318,3.318,0,0,1,.444,2.872,2.3,2.3,0,0,1-1.617,1.31,10.727,10.727,0,0,0-3.35,1.893c-1.4,1.033-2.731,2.009-4.517,2.009q-.164,0-.332-.011c-.947-.065-1.106-.772-1.291-1.589a2.833,2.833,0,0,0-.965-1.862,5.964,5.964,0,0,1-1.965,2.1c-1.37,1.064-2.786,2.164-1.827,4.686.019.052-.027.164-.122.3-.13.185-.328.376-.433.376-.237-.021-.458-.032-.659-.032-2.386,0-2.771,1.454-3.409,3.863l-.043.163c-.557,2.106-2.845,2.76-5.057,3.392a21.3,21.3,0,0,0-2.385.782l-.217.087c-.422.167-.942.373-.945.569-.1,3.231-1.548,3.666-2.946,3.666a13.889,13.889,0,0,1-1.659-.14,13.694,13.694,0,0,0-1.656-.14,2.982,2.982,0,0,0-1.68.406.831.831,0,0,1-.45.143c-.575,0-1.1-.686-1.581-1.428-1.288-1.988-2.471-2.913-3.722-2.913-1.084,0-2.253.731-3.574,2.235a11.3,11.3,0,0,1-2.62,1.99c-.449.279-.913.567-1.36.88a3.9,3.9,0,0,0,1.671.3c.205,0,.412-.007.618-.013s.4-.012.6-.012a3.041,3.041,0,0,1,2.9,1.417,9.506,9.506,0,0,1-5.577,1.678,14.087,14.087,0,0,1-1.941-.142l-.172-.024a14.973,14.973,0,0,0-2.1-.2,5.637,5.637,0,0,0-1.841.288,9.541,9.541,0,0,1-2.963.622c-1.966,0-2.886-1.341-2.895-4.22,0-1.1-2.018-2.613-3.9-3.669a15.22,15.22,0,0,0-6.1-2.134,2.562,2.562,0,0,0-.47.039c-1.089.2-2.284.322-3.439.437-2.216.219-4.507.445-6.016,1.295a63.566,63.566,0,0,1-5.824,2.774c-4.522,1.969-9.2,4.005-12.325,8.3a3.176,3.176,0,0,1-2.193,1.169,6.86,6.86,0,0,0-1.048.285,24.681,24.681,0,0,1-3.638.994c-3.127.686-6.36,1.4-8.181,5.073C49.273,94.287,49.1,94.465,48.907,94.465ZM38.414,88.871v0c-.955,0-1.918,1.02-4.029,3.255l1.769-.2c1.873-.212,3.592-.407,5.517-.628-1.546-1.564-2.4-2.429-3.257-2.429Zm-6.643-16.6v0c-.534,0-.791.393-.81,1.236-.04,1.523.816,1.921,2.23,2.395a5.917,5.917,0,0,0,1.872.328c2.393,0,3.994-1.732,5.689-3.565.4-.434.816-.882,1.241-1.305l-2.319.284c-2.078.248-4.226.5-6.311.9a.746.746,0,0,1-.13.011,2.781,2.781,0,0,1-.687-.135l-.026-.007a2.976,2.976,0,0,0-.749-.142ZM9.14,60.057c-.139.125-.277.246-.412.365C7.481,61.519,6.5,62.383,7.191,64c.778,1.8,2.37,2.6,5.677,2.848-2.333-1.332-2.719-2.987-3.128-4.739A12.977,12.977,0,0,0,9.14,60.057ZM222.585,63.01c-3.83.837-7.781,1.352-11.6,1.849-2.644.344-5.377.7-8.046,1.16a23.408,23.408,0,0,0,4.194.374c5.155,0,10.119-1.631,14.92-3.208Zm-5.316-9.835a1.4,1.4,0,0,0-.313.036c-3.178.725-6.395,1.526-9.506,2.3q-1.713.427-3.415.847l.1.738q1.723-.218,3.447-.434h.028v0c3.4-.426,6.912-.867,10.362-1.339a.965.965,0,0,0,.5-.413.81.81,0,0,0,.2-.509A1.438,1.438,0,0,0,217.269,53.175ZM209.157,44c-4.831,0-11.465.235-12.321.509l-.092.029c-.574.181-1.225.386-1.047,1.133a2.484,2.484,0,0,0,.963,1.473,8.687,8.687,0,0,0,4.087.752c4.3,0,10.508-1.495,12.9-3.72A30.086,30.086,0,0,0,209.157,44Zm13.982-2.535a18.428,18.428,0,0,1,2.136.169,18.858,18.858,0,0,0,2.148.168c1.648,0,3.511-.4,4.83-3.342-3.267.033-6.17,1.262-8.976,2.451-.694.294-1.4.594-2.1.871A5.464,5.464,0,0,1,223.139,41.469ZM168.1,32.84a5.5,5.5,0,0,0-4.112,1.6,6.794,6.794,0,0,0,4.876,1.8,23.187,23.187,0,0,0,3.267-.316,23.37,23.37,0,0,1,3.258-.312h.111a1.554,1.554,0,0,0,1.1-2.506.628.628,0,0,0-.458-.22.6.6,0,0,0-.228.047,6.257,6.257,0,0,1-2.409.431,19.255,19.255,0,0,1-2.71-.262A19.1,19.1,0,0,0,168.1,32.84Z" transform="translate(120.198 130.025)" fill="#ffd7ca"/>
    <path id="Fill_495" data-name="Fill 495" d="M12.949,0C9.184,2.285,5.117,3.132,0,3.025,4.407-.036,9.077,1.664,12.949,0" transform="translate(332.259 199.104)" fill="#ffd7ca"/>
  </g>
</svg>
