<svg width="72" height="72" viewBox="0 0 72 72" fill="none" xmlns="http://www.w3.org/2000/svg">
<path d="M35.2978 38.8364H35.3161C35.7484 38.8364 36.1629 39.0081 36.4686 39.3138C36.7742 39.6194 36.9459 40.034 36.9459 40.4663C36.9459 40.8985 36.7742 41.3131 36.4686 41.6187C36.1629 41.9244 35.7484 42.0961 35.3161 42.0961H35.2978C34.8656 42.0961 34.451 41.9244 34.1453 41.6187C33.8397 41.3131 33.668 40.8985 33.668 40.4663C33.668 40.034 33.8397 39.6194 34.1453 39.3138C34.451 39.0081 34.8656 38.8364 35.2978 38.8364Z" fill="black" stroke="white" stroke-width="0.6"/>
<path d="M66.2046 44.7832C65.7417 44.2423 65.1755 43.7991 64.5393 43.4797C63.903 43.1602 63.2095 42.9709 62.4991 42.9227L56.0304 42.4573L56.1612 41.8948C56.5598 40.1637 56.7319 38.3883 56.673 36.6129C56.493 31.1285 54.1769 25.8888 50.1509 21.8641C46.1248 17.8395 40.9034 15.536 35.3951 15.3434C33.6205 15.2824 31.8455 15.4521 30.1146 15.8482L29.5521 15.979L29.0852 9.51023C28.9812 8.07783 28.3126 6.74536 27.2264 5.80579C26.1402 4.86621 24.7253 4.39644 23.2929 4.49977C22.5834 4.55085 21.891 4.74149 21.2554 5.06076C20.6198 5.38002 20.0534 5.82162 19.5888 6.36023C19.1203 6.89564 18.7634 7.51923 18.539 8.19441C18.3147 8.86958 18.2275 9.58276 18.2824 10.2921L18.3907 11.5577L17.7705 11.4593C17.4481 11.4043 17.1217 11.3756 16.7946 11.3735C16.0839 11.3696 15.3795 11.5082 14.7233 11.7811C14.067 12.054 13.4721 12.4558 12.9738 12.9626C12.358 13.5838 11.8997 14.3434 11.6372 15.1778C11.3747 16.0123 11.3157 16.8974 11.4649 17.7593L11.5704 18.3865L10.2907 18.2768C8.85996 18.1766 7.44785 18.6477 6.36391 19.5869C5.27997 20.5262 4.61264 21.8568 4.50819 23.2873C4.4481 24.0612 4.55765 24.8389 4.8292 25.5661C5.10075 26.2933 5.52775 26.9525 6.08038 27.4976C7.00315 28.416 8.22334 28.975 9.52148 29.074L16.0015 29.5395L15.8721 30.102C15.0898 33.5702 15.2036 37.1805 16.2026 40.5926C17.2586 44.2 19.2084 47.4824 21.8712 50.1354C25.8762 54.1404 31.113 56.4523 36.6185 56.6534C36.7521 56.6534 36.8829 56.6534 37.0108 56.6632C37.1388 56.673 37.2359 56.6716 37.3469 56.6716C38.882 56.6711 40.4121 56.4956 41.9074 56.1485L42.4699 56.0191L42.9354 62.4809C43.0373 63.8447 43.65 65.1199 44.651 66.0519C45.652 66.9838 46.9677 67.5039 48.3354 67.5082C48.457 67.5112 48.5787 67.506 48.6996 67.4927H48.7235C50.1551 67.3898 51.4873 66.7225 52.4271 65.6376C53.3669 64.5528 53.8375 63.1391 53.7354 61.7074L53.6257 60.4348L54.2515 60.5388C54.5664 60.5932 54.8853 60.6219 55.2049 60.6246C55.9159 60.6289 56.6206 60.4905 57.2771 60.2175C57.9336 59.9446 58.5287 59.5426 59.0271 59.0355C59.6427 58.4144 60.1009 57.6551 60.3633 56.821C60.6258 55.9868 60.685 55.1019 60.536 54.2402L60.4291 53.613L61.7088 53.7213C61.8424 53.7326 61.976 53.7368 62.1082 53.7368C63.4733 53.7309 64.7859 53.2102 65.7838 52.2788C66.7817 51.3473 67.3915 50.0737 67.4913 48.7123C67.5538 48.0056 67.4724 47.2935 67.252 46.6192C67.0316 45.9448 66.6767 45.3222 66.2088 44.7888L66.2046 44.7832ZM34.6694 18.2177C39.5998 18.2177 44.4977 20.2891 48.1104 23.9004C49.077 24.8682 49.94 25.9343 50.6852 27.0813L51.1802 27.8421H19.5959L19.9573 27.1263C20.7322 25.5918 21.7402 24.1867 22.9455 22.961C26.0238 19.901 30.1863 18.2177 34.6694 18.2177ZM17.0084 26.7579L9.72398 26.2151C9.39224 26.1905 9.0686 26.1008 8.77156 25.9511C8.47452 25.8013 8.20991 25.5945 7.99284 25.3425C7.77578 25.0904 7.61053 24.798 7.50654 24.4821C7.40255 24.1661 7.36186 23.8327 7.38679 23.501C7.43824 22.8299 7.75312 22.2064 8.26268 21.7667C8.77224 21.327 9.43508 21.1067 10.1065 21.154L14.3027 21.4676C14.597 21.4867 14.8901 21.4163 15.1436 21.2657C15.3971 21.1151 15.5991 20.8914 15.723 20.6238C15.844 20.3593 15.881 20.0641 15.829 19.7779C15.7769 19.4918 15.6383 19.2285 15.4319 19.0235L15.0255 18.6171C14.6691 18.2636 14.4258 17.812 14.3267 17.3198C14.2275 16.8277 14.2769 16.3172 14.4687 15.8532C14.6604 15.3892 14.9858 14.9927 15.4035 14.7141C15.8212 14.4355 16.3122 14.2874 16.8143 14.2887C17.4779 14.2957 18.114 14.5552 18.5932 15.0143L19.0277 15.4474C19.2357 15.6533 19.5015 15.7908 19.7897 15.8416C20.0779 15.8925 20.3747 15.8542 20.6406 15.732C20.9065 15.6097 21.1288 15.4093 21.2778 15.1575C21.4268 14.9056 21.4954 14.6143 21.4746 14.3224L21.161 10.1163C21.1177 9.4435 21.3398 8.78049 21.7796 8.26945C22.2194 7.75842 22.8419 7.44004 23.5137 7.38258C23.8479 7.35768 24.1837 7.39903 24.5019 7.50426C24.8201 7.60948 25.1144 7.77651 25.3679 7.99576C25.6213 8.215 25.829 8.48215 25.979 8.78186C26.129 9.08157 26.2183 9.40795 26.2418 9.74227L26.7649 16.983L26.4555 17.1237C24.4114 18.0594 22.5534 19.3572 20.9712 20.9543C19.3821 22.5405 18.0892 24.3978 17.1532 26.4387L17.0084 26.7579ZM43.2982 52.7341L43.2152 52.7651H43.1871C41.3085 53.4476 39.3245 53.7941 37.3259 53.7888C37.1248 53.7888 36.9237 53.7888 36.7212 53.779C31.9329 53.6074 27.3823 51.5881 23.9074 48.0935C22.3083 46.4934 20.9955 44.6307 20.0262 42.5866L19.6901 41.8835H29.2413C29.6199 41.8835 29.9829 41.7331 30.2506 41.4655C30.5183 41.1978 30.6687 40.8347 30.6687 40.4562C30.6687 40.0776 30.5183 39.7146 30.2506 39.4469C29.9829 39.1792 29.6199 39.0288 29.2413 39.0288H18.7451L18.6607 38.6421C18.1068 36.1637 18.0809 33.5965 18.5848 31.1074L18.6677 30.7151H52.5583L52.6751 31.0385C53.3443 32.8586 53.7161 34.7745 53.7762 36.7127C53.793 37.2752 53.7762 37.887 53.7382 38.5676L53.7101 39.0288H41.539C41.1604 39.0288 40.7974 39.1792 40.5297 39.4469C40.262 39.7146 40.1116 40.0776 40.1116 40.4562C40.1116 40.8347 40.262 41.1978 40.5297 41.4655C40.7974 41.7331 41.1604 41.8835 41.539 41.8835H53.1898L52.9746 42.5318C52.9085 42.7301 52.834 42.9537 52.7594 43.159L52.7496 43.1871C52.7496 43.197 52.7426 43.2068 52.7383 43.2152L52.7285 43.242C51.929 45.4089 50.668 47.3762 49.0329 49.0076C47.4225 50.6611 45.4633 51.9343 43.2982 52.7341ZM64.6493 48.5041C64.5996 49.1768 64.2856 49.8025 63.776 50.2444C63.2664 50.6863 62.6026 50.9085 61.9296 50.8624L57.7109 50.5488C57.4164 50.5294 57.123 50.5997 56.8692 50.7503C56.6154 50.9009 56.4132 51.1248 56.2891 51.3926C56.1688 51.6575 56.1323 51.953 56.1846 52.2392C56.2369 52.5255 56.3754 52.789 56.5816 52.9943L57.0035 53.4162C57.238 53.6507 57.4236 53.9295 57.5496 54.2363C57.6756 54.5431 57.7395 54.8719 57.7376 55.2035C57.734 55.8683 57.4741 56.506 57.0119 56.9838C56.7765 57.2205 56.4964 57.4079 56.1879 57.5354C55.8793 57.6629 55.5486 57.7278 55.2148 57.7263C54.5519 57.7225 53.9159 57.4636 53.4387 57.0035L53.0238 56.5887C52.8158 56.3828 52.55 56.2453 52.2618 56.1945C51.9736 56.1436 51.6768 56.1819 51.4109 56.3041C51.1451 56.4264 50.9228 56.6268 50.7738 56.8786C50.6248 57.1305 50.5561 57.4218 50.5769 57.7137L50.8723 61.9029C50.9147 62.5756 50.6919 63.2381 50.2515 63.7483C49.8112 64.2586 49.1884 64.576 48.5168 64.6324C48.4577 64.6324 48.4001 64.6324 48.3424 64.6324C48.0059 64.6371 47.6719 64.5733 47.3608 64.4449C47.0497 64.3166 46.7679 64.1263 46.5326 63.8857C46.1119 63.4581 45.8567 62.8949 45.8126 62.2966L45.2894 55.0488L45.5988 54.9082C47.6429 53.9724 49.501 52.6747 51.0832 51.0776C52.6745 49.489 53.9736 47.6325 54.9209 45.5932L55.0615 45.2852L62.3065 45.807C62.9747 45.8559 63.5969 46.1655 64.039 46.669L64.0559 46.6887C64.4744 47.1974 64.6862 47.845 64.6493 48.5027V48.5041Z" fill="black"/>
</svg>
