<svg width="72" height="72" viewBox="0 0 72 72" fill="none" xmlns="http://www.w3.org/2000/svg">
<path d="M52.8116 25.3267C52.5013 23.0146 51.718 20.7911 50.5104 18.7951C49.3029 16.799 47.697 15.0732 45.793 13.7252L46.0503 11.6425H52.7342C52.9183 11.6442 53.1009 11.6094 53.2714 11.5401C53.442 11.4708 53.5971 11.3684 53.7278 11.2389C53.8586 11.1093 53.9624 10.9551 54.0332 10.7852C54.104 10.6153 54.1405 10.433 54.1405 10.2489V5.25253C54.1403 5.0685 54.1037 4.88633 54.0328 4.7165C53.9619 4.54668 53.8581 4.39256 53.7274 4.26302C53.5967 4.13349 53.4417 4.03109 53.2712 3.96174C53.1007 3.89239 52.9182 3.85745 52.7342 3.85893H43.9466C42.6327 3.85858 41.3638 4.33789 40.3783 5.20687C39.3928 6.07585 38.7585 7.2747 38.5944 8.57831L38.3131 10.765C37.5466 10.6588 36.7737 10.6062 35.9998 10.6075C31.8912 10.6124 27.9236 12.1065 24.8324 14.813C21.7411 17.5194 19.7358 21.2548 19.1881 25.3267C18.4763 25.4187 17.8223 25.7667 17.3484 26.3058C16.8745 26.8449 16.6132 27.5382 16.6133 28.256V32.1752C16.6137 32.5447 16.7606 32.8989 17.0219 33.1602C17.2831 33.4215 17.6374 33.5684 18.0069 33.5688H19.257L23.6713 66.9278C23.7155 67.2628 23.8796 67.5703 24.1333 67.7935C24.387 68.0166 24.7129 68.1403 25.0508 68.1414H47.0037C47.3426 68.1445 47.6707 68.0223 47.925 67.7983C48.1794 67.5744 48.342 67.2644 48.3819 66.9278L52.7961 33.5688H53.9998C54.3693 33.5684 54.7236 33.4215 54.9849 33.1602C55.2461 32.8989 55.3931 32.5447 55.3934 32.1752V28.2377C55.3889 27.522 55.1246 26.8323 54.6497 26.2969C54.1748 25.7614 53.5216 25.4167 52.8116 25.3267ZM49.9808 33.5688L49.137 40.0516C47.5179 41.5148 45.4131 42.3246 43.2308 42.3241C42.8783 42.3238 42.5262 42.3032 42.1761 42.2622L43.2744 33.5688H49.9808ZM35.45 33.5547L34.8777 38.0547C33.0388 36.9286 30.9227 36.337 28.7664 36.3462C26.6102 36.3554 24.4992 36.965 22.67 38.1067L22.078 33.5547H35.45ZM37.4187 40.1191L38.2428 33.5547H40.4773L39.4845 41.4761C38.733 41.1253 38.0359 40.6683 37.4145 40.1191H37.4187ZM28.8125 39.1178C30.8892 39.1069 32.9008 39.8419 34.4811 41.1892L32.1748 59.4986C32.1319 59.8631 32.2332 60.23 32.457 60.5209C32.6809 60.8117 33.0096 61.0035 33.373 61.0553L38.33 61.6881H38.3469C38.3679 61.6868 38.3891 61.6868 38.4102 61.6881C38.4428 61.693 38.4756 61.6958 38.5086 61.6966C38.8165 61.6974 39.1163 61.5988 39.3636 61.4153C39.5078 61.3027 39.6283 61.1628 39.7183 61.0035C39.8083 60.8443 39.866 60.6688 39.8881 60.4872L41.8358 45.0311C42.3022 45.0906 42.7718 45.1211 43.242 45.1225C45.1242 45.1216 46.9778 44.6615 48.642 43.7824L45.7986 65.3261H26.2644L23.0722 41.2399C24.6685 39.8686 26.7039 39.1157 28.8083 39.1178H28.8125ZM35.1111 58.451L37.018 43.286C37.6804 43.7124 38.3878 44.0647 39.1273 44.3364L37.3048 58.7252L35.1111 58.451ZM39.3017 25.2874L40.7009 14.178C41.4279 14.4345 42.1333 14.7486 42.8103 15.1174L41.5306 25.2831L39.3017 25.2874ZM41.0623 11.3753L41.3703 8.93409C41.4514 8.30379 41.7586 7.72438 42.2348 7.30355C42.711 6.88272 43.3237 6.6491 43.9592 6.64612H51.3603V8.8694H44.8353C44.497 8.8699 44.1703 8.99321 43.9161 9.21642C43.6618 9.43964 43.4973 9.74757 43.453 10.083L43.1816 12.2064C42.4943 11.8828 41.7864 11.6051 41.0623 11.3753ZM50.0089 25.2972H44.3347L45.3866 16.9356C47.8495 19.1035 49.4817 22.0606 50.0033 25.3L50.0089 25.2972ZM25.8706 26.6781C25.8703 26.3087 25.7233 25.9544 25.462 25.6931C25.2008 25.4319 24.8465 25.2849 24.477 25.2846H22.0091C22.551 21.9648 24.2558 18.9459 26.8189 16.7675C29.3819 14.5891 32.6361 13.3931 35.9998 13.3933C36.6586 13.3934 37.3165 13.4404 37.9686 13.5339L36.4794 25.3014H34.453C34.0834 25.3014 33.7289 25.4483 33.4675 25.7096C33.2062 25.971 33.0594 26.3254 33.0594 26.695C33.0594 27.0646 33.2062 27.4191 33.4675 27.6804C33.7289 27.9418 34.0834 28.0886 34.453 28.0886H52.4305C52.4528 28.0878 52.4751 28.0917 52.496 28.0999C52.5168 28.1081 52.5357 28.1205 52.5515 28.1363C52.5674 28.1521 52.5798 28.171 52.588 28.1919C52.5962 28.2127 52.6 28.235 52.5992 28.2574V30.7886H19.4061V28.2419C19.4053 28.2195 19.4091 28.1972 19.4173 28.1764C19.4255 28.1556 19.4379 28.1367 19.4538 28.1208C19.4696 28.105 19.4885 28.0926 19.5093 28.0844C19.5302 28.0762 19.5525 28.0724 19.5748 28.0731H24.4686C24.8383 28.0735 25.1931 27.9271 25.4549 27.6661C25.7168 27.405 25.8643 27.0507 25.865 26.681L25.8706 26.6781Z" fill="black"/>
<path d="M29.7139 27.9325C30.0453 27.9279 30.3627 27.7983 30.6027 27.5697C30.8356 27.3326 30.9659 27.0133 30.9655 26.6809C30.9607 26.3496 30.8312 26.0322 30.6027 25.7922C30.3658 25.5587 30.0465 25.4279 29.7139 25.428C29.3819 25.4328 29.0639 25.5628 28.8238 25.7922C28.5908 26.0293 28.4605 26.3485 28.4609 26.6809C28.4662 27.0122 28.5957 27.3294 28.8238 27.5697C29.0626 27.8008 29.3815 27.9308 29.7139 27.9325Z" fill="black"/>
</svg>
