<svg width="72" height="72" viewBox="0 0 72 72" fill="none" xmlns="http://www.w3.org/2000/svg">
<path d="M68.1018 46.2262C68.0372 45.9589 67.8945 45.7168 67.6919 45.5307C67.4894 45.3446 67.236 45.223 66.9641 45.1814L59.7923 44.069C56.9909 43.63 54.1378 43.6347 51.3379 44.0831C51.9398 43.4953 52.5191 42.8878 53.0634 42.2704C55.8269 39.1373 57.9855 35.5187 59.4295 31.5984L62.3826 23.6067C62.4791 23.3431 62.4945 23.0567 62.4268 22.7842C62.3591 22.5118 62.2115 22.2659 62.0029 22.0781C61.7933 21.8909 61.5316 21.7721 61.2527 21.7374C60.9738 21.7027 60.691 21.7539 60.442 21.884L52.8918 25.8018C49.4258 27.5971 46.2982 29.981 43.6485 32.8471C44.0342 30.8371 44.2287 28.795 44.2293 26.7482C44.2227 22.0041 43.1788 17.3187 41.1707 13.0204L37.2515 4.66027C37.1396 4.42091 36.9617 4.21843 36.7388 4.07658C36.5159 3.93472 36.2571 3.85938 35.9929 3.85938C35.7287 3.85938 35.4699 3.93472 35.247 4.07658C35.0241 4.21843 34.8462 4.42091 34.7343 4.66027L30.8151 13.0204C30.628 13.4184 30.4466 13.8276 30.2751 14.2368C30.1314 14.5778 30.129 14.9617 30.2682 15.3045C30.4074 15.6472 30.6769 15.9207 31.0176 16.065C31.1859 16.1361 31.3667 16.1733 31.5495 16.1744C31.7323 16.1755 31.9135 16.1405 32.0827 16.0713C32.2519 16.0022 32.4058 15.9004 32.5355 15.7716C32.6652 15.6428 32.7683 15.4897 32.8387 15.3211C32.992 14.9554 33.1579 14.5814 33.3323 14.2101L35.9929 8.53449L38.6535 14.2031C40.4881 18.1302 41.4417 22.4109 41.4477 26.7454C41.4507 30.2049 40.8447 33.6379 39.6576 36.8873L38.3666 40.4212C37.3963 42.3185 36.6044 44.3018 36.0013 46.3457C35.3869 44.2622 34.5771 42.2413 33.5826 40.3101L32.3324 36.8873C30.7958 32.6816 30.2352 28.1818 30.6927 23.7276C30.7301 23.3606 30.6206 22.9937 30.3882 22.7072C30.1557 22.4208 29.8193 22.238 29.4524 22.199C29.0853 22.1617 28.7183 22.2717 28.4322 22.5048C28.1461 22.7379 27.9643 23.075 27.9266 23.4421C27.6059 26.5728 27.7429 29.7335 28.333 32.8246C25.6875 29.9688 22.5674 27.5927 19.1109 25.8018L11.5607 21.884C11.311 21.7551 11.0282 21.7048 10.7494 21.7396C10.4706 21.7745 10.2088 21.8929 9.99854 22.0792C9.78827 22.2656 9.63932 22.5113 9.57127 22.7839C9.50322 23.0565 9.51925 23.3433 9.61727 23.6067L12.5704 31.5984C14.0148 35.5192 16.1743 39.1378 18.9393 42.2704C19.4821 42.8864 20.0643 43.4939 20.6648 44.0831C17.8644 43.6347 15.0109 43.63 12.209 44.069L5.03711 45.1814C4.76558 45.2242 4.51275 45.3463 4.31036 45.5323C4.10798 45.7183 3.96506 45.96 3.89956 46.2269C3.83406 46.4939 3.84889 46.7743 3.94219 47.0328C4.03549 47.2914 4.20311 47.5166 4.42399 47.6803L10.267 51.9989C14.0237 54.8018 18.4524 56.5658 23.1074 57.1134C22.359 57.9807 21.706 58.926 21.1598 59.9329L18.9674 63.9604C18.8409 64.1912 18.7823 64.453 18.7985 64.7157C18.8147 64.9784 18.905 65.2311 19.059 65.4445C19.2129 65.6579 19.4242 65.8233 19.6684 65.9216C19.9125 66.0198 20.1795 66.0468 20.4384 65.9995L24.9384 65.174C27.2219 64.7709 29.385 63.8576 31.2665 62.5021C32.5449 61.572 33.6707 60.4486 34.6035 59.1721V66.7532C34.6035 67.1221 34.75 67.4758 35.0109 67.7367C35.2717 67.9975 35.6254 68.144 35.9943 68.144C36.3632 68.144 36.7169 67.9975 36.9777 67.7367C37.2386 67.4758 37.3851 67.1221 37.3851 66.7532V59.1426C38.3216 60.4284 39.4538 61.5596 40.7404 62.4951C42.6216 63.851 44.7848 64.7644 47.0685 65.167L51.5685 65.9925C51.6511 66.0077 51.7349 66.0153 51.8188 66.015C52.0604 66.0145 52.2978 65.9513 52.5076 65.8315C52.7174 65.7116 52.8924 65.5393 53.0155 65.3314C53.1386 65.1235 53.2056 64.8871 53.2098 64.6455C53.214 64.404 53.1553 64.1655 53.0395 63.9534L50.8457 59.9259C50.2997 58.9191 49.6472 57.9739 48.8995 57.1064C53.5518 56.558 57.9784 54.7967 61.7357 51.9989L67.5787 47.6803C67.7999 47.5168 67.9677 47.2914 68.0608 47.0326C68.1539 46.7738 68.1682 46.4931 68.1018 46.2262ZM45.0716 57.2948C46.441 58.3777 47.5738 59.7297 48.4002 61.2675L49.1962 62.7314L47.5621 62.4375C45.7776 62.1275 44.082 61.4328 42.5931 60.4014C41.1042 59.37 39.8578 58.0268 38.9404 56.4651C40.9469 56.9687 43.0034 57.247 45.0716 57.2948ZM38.6296 53.4867C40.1464 52.0142 41.8426 50.7386 43.678 49.6898C43.8763 49.5829 44.0732 49.4761 44.2673 49.3664C48.8876 46.893 54.1911 46.0014 59.3662 46.8281L63.2362 47.4286L60.0834 49.7587C57.5063 51.6743 54.5734 53.0573 51.456 53.827C47.2257 54.8503 42.7997 54.7328 38.6296 53.4867ZM43.0129 46.8773C42.7668 47.0081 42.5291 47.1389 42.3098 47.264C40.9713 47.9786 39.583 48.5957 38.1557 49.1104C38.7151 46.6253 39.5735 44.2172 40.7123 41.9386C40.7893 41.834 40.8508 41.7189 40.8951 41.5968L40.9176 41.5364C43.8543 35.8476 48.4863 31.2121 54.1729 28.2712L58.5323 26.01L56.8265 30.6225C54.2929 37.504 49.3994 43.2632 43.0171 46.8745L43.0129 46.8773ZM33.0623 56.4595C32.1459 58.0226 30.8999 59.3672 29.4109 60.3996C27.9219 61.432 26.2257 62.1274 24.4405 62.4375L22.8065 62.737L23.6024 61.2731C24.4289 59.735 25.5623 58.3829 26.9324 57.3004C29.0006 57.2487 31.0566 56.9667 33.0623 56.4595ZM21.0248 40.4282C18.4883 37.5525 16.5067 34.2316 15.1804 30.6337L13.4746 26.0156L17.834 28.2768C21.2361 30.0403 24.2807 32.4207 26.8129 35.2968C30.2777 39.2434 32.6954 43.9972 33.8441 49.1217C32.4184 48.6076 31.0315 47.9915 29.6943 47.2781C29.458 47.1375 29.219 47.0123 28.9912 46.89C25.9947 45.1925 23.3023 43.0072 21.0248 40.424V40.4282ZM20.5466 53.827C17.4292 53.0573 14.4964 51.6743 11.9193 49.7587L8.76649 47.4243L12.6365 46.8281C17.811 46.0049 23.1127 46.8989 27.7312 49.3734C27.9266 49.4845 28.1263 49.5928 28.3218 49.6982C30.158 50.7471 31.8551 52.0228 33.373 53.4951C29.2019 54.7371 24.7758 54.8502 20.5466 53.8228V53.827Z" fill="black"/>
<path d="M30.0641 20.6621C30.247 20.6619 30.4281 20.6257 30.597 20.5555C30.7659 20.4852 30.9193 20.3824 31.0484 20.2529C31.2432 20.0582 31.3758 19.8101 31.4295 19.5401C31.4832 19.27 31.4557 18.9901 31.3503 18.7357C31.2449 18.4813 31.0665 18.2638 30.8375 18.1109C30.6086 17.9579 30.3394 17.8762 30.0641 17.8762C29.7887 17.8762 29.5195 17.9579 29.2906 18.1109C29.0616 18.2638 28.8832 18.4813 28.7778 18.7357C28.6725 18.9901 28.6449 19.27 28.6986 19.5401C28.7524 19.8101 28.885 20.0582 29.0797 20.2529C29.2088 20.3825 29.3622 20.4853 29.5311 20.5556C29.7 20.6258 29.8811 20.662 30.0641 20.6621Z" fill="black"/>
</svg>
