<svg width="72" height="72" viewBox="0 0 72 72" fill="none" xmlns="http://www.w3.org/2000/svg">
<path d="M67.3578 43.3873L28.6114 4.64087C28.107 4.13902 27.4244 3.8573 26.7129 3.8573C26.0014 3.8573 25.3189 4.13902 24.8145 4.64087L22.3114 7.1454C22.1821 7.27467 22.0796 7.42813 22.0096 7.59703C21.9396 7.76593 21.9036 7.94696 21.9036 8.12977C21.9036 8.31259 21.9396 8.49361 22.0096 8.66251C22.0796 8.83141 22.1821 8.98488 22.3114 9.11415C22.4406 9.24342 22.5941 9.34596 22.763 9.41592C22.9319 9.48588 23.1129 9.52189 23.2958 9.52189C23.4786 9.52189 23.6596 9.48588 23.8285 9.41592C23.9974 9.34596 24.1509 9.24342 24.2801 9.11415L26.7172 6.67852L43.4108 23.3791L41.4954 24.8627L36.8619 20.2221C36.6004 19.9618 36.2465 19.8156 35.8775 19.8156C35.5085 19.8156 35.1545 19.9618 34.8931 20.2221L29.389 25.7346C29.1292 25.9965 28.9828 26.3501 28.9812 26.719C28.9806 26.9019 29.0164 27.0831 29.0864 27.2521C29.1564 27.4211 29.2593 27.5745 29.389 27.7034L33.0762 31.3891L31.1595 32.8741L27.7015 29.3909C27.5724 29.2614 27.4189 29.1588 27.25 29.0887C27.0811 29.0186 26.9 28.9826 26.7172 28.9826C26.5343 28.9826 26.3532 29.0186 26.1843 29.0887C26.0154 29.1588 25.862 29.2614 25.7328 29.3909L20.2315 34.8907C20.1019 35.0197 19.9993 35.1731 19.9295 35.3421C19.8597 35.5111 19.8243 35.6923 19.8251 35.8751C19.8263 36.2438 19.9723 36.5973 20.2315 36.8595L22.7628 39.3837L20.8475 40.8687L6.67669 26.719L16.3222 17.0721C16.5832 16.811 16.7299 16.457 16.7299 16.0877C16.7299 15.7185 16.5832 15.3644 16.3222 15.1034C16.0611 14.8423 15.707 14.6956 15.3378 14.6956C14.9686 14.6956 14.6145 14.8423 14.3534 15.1034L4.63904 24.8121C4.13719 25.3165 3.85547 25.9991 3.85547 26.7106C3.85547 27.4221 4.13719 28.1046 4.63904 28.609L43.3854 67.3596C43.8902 67.8608 44.5726 68.142 45.2839 68.142C45.9952 68.142 46.6776 67.8608 47.1823 67.3596L67.3578 47.1884C67.8609 46.6838 68.1435 46.0004 68.1435 45.2878C68.1435 44.5753 67.8609 43.8918 67.3578 43.3873ZM24.9678 37.6695L23.1776 35.8793L26.7172 32.344L28.9545 34.5813L24.9678 37.6695ZM35.2953 29.6721L32.3422 26.719L35.8747 23.1851L39.2792 26.5784L35.2953 29.6721ZM45.9476 25.9231L25.9142 45.9509L22.8204 42.8571L45.3964 25.3634L45.9476 25.9231ZM54.4442 52.6418C54.7972 52.189 55.1206 51.7306 55.4047 51.2792C56.8559 48.9785 57.3804 46.7299 56.9206 44.7752C56.5546 43.2962 55.6774 41.9942 54.4442 41.0993V34.414L65.3187 45.2885L54.4442 56.1617V52.6418ZM38.029 37.7693V41.0951C36.7943 41.9897 35.9161 43.2924 35.5498 44.7724C35.09 46.7271 35.6145 48.9757 37.0658 51.2763C37.347 51.7277 37.6747 52.1862 38.029 52.6418V58.0643L27.8815 47.9168L38.029 37.7693ZM45.2867 65.322L40.8106 60.8459V55.5654C42.6387 57.1643 44.5892 58.3245 45.9406 58.6184C46.1352 58.6606 46.3366 58.6606 46.5312 58.6184C47.884 58.3245 49.8303 57.1629 51.664 55.564V58.939L45.2867 65.322ZM45.319 65.4879L45.2192 65.3881L45.319 65.4879ZM46.2359 55.8171C44.644 55.2659 41.3422 52.8345 39.4184 49.7927C38.69 48.6382 37.8968 46.9409 38.2568 45.4081C38.4174 44.7767 38.7444 44.1999 39.2037 43.7379C39.663 43.2758 40.2378 42.9455 40.8683 42.7812C41.1278 42.7202 41.3934 42.6891 41.66 42.6884C42.0972 42.6872 42.5302 42.7726 42.9343 42.9397C43.3383 43.1067 43.7053 43.352 44.014 43.6615C44.3043 43.9559 44.6503 44.1897 45.0317 44.3492C45.4131 44.5088 45.8225 44.5909 46.2359 44.5909C46.6494 44.5909 47.0587 44.5088 47.4401 44.3492C47.8216 44.1897 48.1675 43.9559 48.4578 43.6615C48.8634 43.2571 49.3661 42.9637 49.9177 42.8096C50.4693 42.6554 51.0513 42.6456 51.6078 42.7812C52.238 42.9455 52.8126 43.276 53.2717 43.738C53.7308 44.2 54.0575 44.7768 54.2178 45.4081C54.5778 46.9395 53.7847 48.6424 53.0562 49.7927C51.1339 52.8345 47.8292 55.2659 46.2359 55.8171ZM51.664 39.9673C50.7276 39.8308 49.7722 39.9157 48.8745 40.2151C47.9768 40.5145 47.1617 41.0201 46.4947 41.6913C46.4627 41.7285 46.4231 41.7583 46.3786 41.7788C46.334 41.7992 46.2856 41.8098 46.2366 41.8098C46.1876 41.8098 46.1392 41.7992 46.0947 41.7788C46.0501 41.7583 46.0105 41.7285 45.9786 41.6913C45.4157 41.1246 44.7461 40.6749 44.0085 40.3684C43.2709 40.0618 42.4799 39.9045 41.6811 39.9054C41.3898 39.9058 41.099 39.9265 40.8106 39.9673V34.9891L47.915 27.8834L51.664 31.6324V39.9673Z" fill="black"/>
<path d="M19.8281 17.5461C19.8274 17.7289 19.863 17.91 19.9327 18.079C20.0025 18.248 20.1051 18.4014 20.2345 18.5305L25.7344 24.0303C25.9955 24.2914 26.3496 24.438 26.7188 24.438C27.088 24.438 27.4421 24.2914 27.7031 24.0303L33.203 18.5305C33.464 18.2694 33.6107 17.9153 33.6107 17.5461C33.6107 17.1769 33.464 16.8228 33.203 16.5617L27.7031 11.0633C27.5741 10.9335 27.4208 10.8305 27.2518 10.7603C27.0829 10.69 26.9017 10.6538 26.7188 10.6538C26.5358 10.6538 26.3546 10.69 26.1857 10.7603C26.0168 10.8305 25.8634 10.9335 25.7344 11.0633L20.2331 16.5631C20.1042 16.6922 20.0021 16.8455 19.9326 17.0142C19.8631 17.1829 19.8276 17.3636 19.8281 17.5461ZM23.1849 17.5461L26.7188 14.0122L30.2527 17.5461L26.7188 21.08L23.1849 17.5461Z" fill="black"/>
<path d="M11.0602 25.7343C10.9304 25.8632 10.8275 26.0166 10.7575 26.1856C10.6875 26.3546 10.6517 26.5358 10.6524 26.7187C10.6539 27.0876 10.8004 27.4412 11.0602 27.7031L16.56 33.2043C16.8213 33.465 17.1753 33.6115 17.5444 33.6115C17.9135 33.6115 18.2675 33.465 18.5288 33.2043L24.0272 27.7031C24.1568 27.5741 24.2596 27.4207 24.3296 27.2517C24.3996 27.0828 24.4355 26.9016 24.435 26.7187C24.4335 26.3498 24.287 25.9963 24.0272 25.7343L18.5274 20.2345C18.2663 19.9734 17.9122 19.8268 17.543 19.8268C17.1738 19.8268 16.8197 19.9734 16.5586 20.2345L11.0602 25.7343ZM14.0133 26.7187L17.5458 23.1848L21.0769 26.7187L17.5444 30.2526L14.0133 26.7187Z" fill="black"/>
<path d="M19.3169 13.5002C19.5485 13.5004 19.7765 13.4428 19.9802 13.3326C20.1839 13.2224 20.3568 13.0631 20.4833 12.8691C20.6098 12.6751 20.6859 12.4526 20.7046 12.2217C20.7233 11.9909 20.684 11.759 20.5904 11.5472C20.4968 11.3354 20.3518 11.1503 20.1685 11.0087C19.9852 10.8671 19.7694 10.7736 19.5408 10.7365C19.3122 10.6995 19.0779 10.7201 18.8593 10.7966C18.6407 10.873 18.4446 11.0028 18.2889 11.1743C18.1072 11.3733 17.9873 11.621 17.9439 11.887C17.9005 12.153 17.9354 12.4259 18.0444 12.6725C18.1533 12.919 18.3316 13.1285 18.5576 13.2755C18.7835 13.4224 19.0473 13.5005 19.3169 13.5002Z" fill="black"/>
</svg>
