<svg width="72" height="72" viewBox="0 0 72 72" fill="none" xmlns="http://www.w3.org/2000/svg">
<path d="M31.1196 37.2062H23.8394V3.93719H28.0793C28.4176 5.79109 29.3955 7.46757 30.8427 8.67461C32.29 9.88165 34.1148 10.5427 35.9993 10.5427C37.8838 10.5427 39.7086 9.88165 41.1558 8.67461C42.6031 7.46757 43.581 5.79109 43.9193 3.93719H48.1591V22.4758C48.1591 22.8566 48.3104 23.2218 48.5797 23.491C48.8489 23.7603 49.2141 23.9116 49.5949 23.9116C49.9757 23.9116 50.3409 23.7603 50.6102 23.491C50.8794 23.2218 51.0307 22.8566 51.0307 22.4758V19.5156L53.3608 20.68C53.6679 20.8337 54.0199 20.8723 54.353 20.7887C54.6861 20.7051 54.9782 20.5049 55.1763 20.2244L61.0544 11.8952C61.261 11.5999 61.3496 11.2379 61.3027 10.8806C61.2559 10.5233 61.077 10.1965 60.8013 9.96438L50.5188 1.39609C50.2602 1.17822 49.933 1.05868 49.5949 1.05859H22.4037C22.0656 1.05916 21.7386 1.17864 21.4797 1.39609L11.1972 9.96438C10.9216 10.1965 10.7427 10.5233 10.6958 10.8806C10.649 11.2379 10.7376 11.5999 10.9441 11.8952L16.8222 20.2244C17.0204 20.5049 17.3124 20.7051 17.6455 20.7887C17.9786 20.8723 18.3306 20.8337 18.6377 20.68L20.9679 19.5156V38.6406C20.9679 39.0215 21.1191 39.3869 21.3883 39.6564C21.6575 39.9259 22.0227 40.0774 22.4037 40.0778H31.1224C31.5032 40.0778 31.8684 39.9265 32.1377 39.6573C32.4069 39.388 32.5582 39.0228 32.5582 38.642C32.5582 38.2612 32.4069 37.896 32.1377 37.6268C31.8684 37.3575 31.5032 37.2062 31.1224 37.2062H31.1196ZM40.9732 3.93719C40.6622 5.01608 40.0089 5.96461 39.1117 6.63972C38.2145 7.31483 37.1221 7.67991 35.9993 7.67991C34.8765 7.67991 33.7841 7.31483 32.8869 6.63972C31.9897 5.96461 31.3364 5.01608 31.0254 3.93719H40.9732ZM51.0307 16.3122V5.56L57.9452 11.3256L53.5408 17.5623L51.0307 16.3122ZM20.9679 5.56V16.3122L18.4563 17.5666L14.0533 11.3228L20.9679 5.56Z" fill="black"/>
<path d="M59.6831 24.9119H35.0569C34.6762 24.9122 34.3112 25.0636 34.042 25.3328C33.7729 25.602 33.6215 25.967 33.6211 26.3476V69.5055C33.6215 69.8861 33.7729 70.2511 34.042 70.5203C34.3112 70.7895 34.6762 70.9409 35.0569 70.9412H44.4886C44.8553 70.9408 45.208 70.8001 45.4744 70.5481C45.7408 70.2961 45.9008 69.9517 45.9216 69.5856L47.37 43.5306L48.8184 69.5856C48.8392 69.9517 48.9992 70.2961 49.2656 70.5481C49.532 70.8001 49.8847 70.9408 50.2514 70.9412H59.6831C60.0638 70.9409 60.4288 70.7895 60.698 70.5203C60.9671 70.2511 61.1185 69.8861 61.1189 69.5055V26.3476C61.1189 25.9669 60.9676 25.6017 60.6984 25.3324C60.4291 25.0631 60.0639 24.9119 59.6831 24.9119ZM42.8081 30.1023V27.7834H51.9403V30.1023H42.8081ZM54.8119 30.1023V27.7834H58.2516V30.1023H54.8119ZM58.2516 32.9739V68.0697H51.6084L49.9561 38.3191C49.9356 37.9527 49.7758 37.608 49.5094 37.3557C49.2429 37.1034 48.8901 36.9625 48.5231 36.962H46.2169C45.8499 36.9625 45.4971 37.1034 45.2306 37.3557C44.9642 37.608 44.8044 37.9527 44.7839 38.3191L43.1302 68.0697H36.4927V32.9739H58.2516ZM39.9366 27.7834V30.1023H36.4927V27.7834H39.9366Z" fill="black"/>
</svg>
