<svg width="72" height="72" viewBox="0 0 72 72" fill="none" xmlns="http://www.w3.org/2000/svg">
<path d="M35.1522 32.3311H30.0742V35.152H35.1522V32.3311Z" fill="black"/>
<path d="M68.9372 28.9587L61.3266 27.8717C59.9336 27.0191 58.4884 26.255 56.9995 25.5837C52.0397 23.3282 46.6531 22.1647 41.2045 22.1722H39.8292C33.3827 22.1818 27.0404 23.799 21.3764 26.8775L17.5683 28.9559C13.0147 29.022 8.55181 30.2381 4.59422 32.4912C3.76638 32.9675 3.07831 33.6531 2.599 34.4792C2.11968 35.3053 1.86596 36.2429 1.86328 37.1979V43.9001C1.86328 44.2731 2.01144 44.6308 2.27516 44.8945C2.53889 45.1582 2.89657 45.3064 3.26953 45.3064H6.85969C7.36899 46.6345 8.26914 47.7769 9.44125 48.5828C10.6134 49.3886 12.0023 49.82 13.4248 49.82C14.8472 49.82 16.2362 49.3886 17.4083 48.5828C18.5804 47.7769 19.4805 46.6345 19.9898 45.3064H49.7545C50.2643 46.6334 51.1635 47.7752 52.3341 48.5818C53.5046 49.3884 54.8917 49.8222 56.3133 49.826C57.1062 49.8258 57.8934 49.6922 58.642 49.4309C59.6065 49.0952 60.4858 48.5524 61.218 47.8406C61.9502 47.1287 62.5177 46.2652 62.8805 45.3106H63.09C63.2697 45.3107 63.4478 45.2763 63.6145 45.2093L67.2708 43.7426C68.1232 43.4093 68.8543 42.8251 69.3675 42.0673C69.8808 41.3095 70.1519 40.4138 70.1452 39.4986V30.3579C70.1445 30.0188 70.0223 29.6911 69.8006 29.4343C69.579 29.1776 69.2726 29.0088 68.9372 28.9587ZM53.9339 27.3598L52.3491 28.9447H40.7981V24.9917H41.1961C45.5518 24.9877 49.8706 25.7906 53.9339 27.3598ZM67.327 35.1561V39.5028C67.3292 39.8531 67.2252 40.1958 67.0286 40.4858C66.832 40.7758 66.5522 40.9993 66.2259 41.127L63.3488 42.2829C63.348 42.2693 63.348 42.2557 63.3488 42.2421C63.3488 42.1662 63.3403 42.0875 63.3333 42.0115C63.3262 41.9356 63.3094 41.8371 63.2953 41.7514L63.2784 41.6557C63.2784 41.6206 63.2686 41.5854 63.263 41.5503C63.2503 41.4687 63.2391 41.3871 63.2222 41.3126C63.2053 41.2381 63.1772 41.1326 63.1519 41.0412L63.1336 40.9737L63.1041 40.8598C63.0858 40.7867 63.0675 40.7192 63.045 40.6418C63.0225 40.5645 62.9902 40.4857 62.9606 40.4098L62.9269 40.3198C62.91 40.2762 62.8945 40.2312 62.8791 40.1862C62.8636 40.1412 62.8355 40.0667 62.813 40.0062C62.7811 39.9274 62.7449 39.8504 62.7047 39.7756L62.6625 39.6954L62.6175 39.5998C62.5838 39.5281 62.5486 39.4592 62.5106 39.3861C62.4727 39.3129 62.4459 39.275 62.4122 39.2229C62.3784 39.1709 62.3658 39.1498 62.3461 39.1146C62.2872 39.0083 62.2229 38.9051 62.1534 38.8053C62.1113 38.742 62.0691 38.6886 62.0283 38.6351L61.9622 38.5479L61.9242 38.4973C61.8694 38.4214 61.8103 38.3412 61.7484 38.2681C61.6711 38.1739 61.598 38.0993 61.5234 38.0234C61.4911 37.9925 61.4588 37.9559 61.425 37.9165C61.3913 37.8771 61.3406 37.8223 61.297 37.7759C61.2534 37.7295 61.1789 37.6634 61.1213 37.6128L61.0523 37.5523C61.0214 37.5256 60.9905 37.4961 60.9595 37.4665C60.9075 37.4173 60.8541 37.3681 60.8006 37.3259C60.7472 37.2837 60.6713 37.2246 60.6108 37.1853L60.5278 37.1248L60.4561 37.07C60.39 37.0207 60.3225 36.9687 60.2522 36.9223C60.1819 36.8759 60.1509 36.859 60.0975 36.8281L59.9569 36.7451C59.8638 36.6826 59.7675 36.6249 59.6686 36.5721C59.5997 36.5356 59.5195 36.4976 59.4394 36.4596L59.348 36.4175L59.2523 36.3696C59.1863 36.3373 59.1244 36.3064 59.0555 36.2782C58.9866 36.2501 58.8881 36.2136 58.7967 36.1812L58.7039 36.1475L58.5956 36.1081C58.5323 36.0842 58.4761 36.0617 58.4072 36.0406C58.3045 36.0097 58.2019 35.9843 58.102 35.9604L57.998 35.9351C57.9642 35.9281 57.9305 35.9182 57.8981 35.9098C57.8447 35.8943 57.7912 35.8803 57.735 35.8676C57.6253 35.8451 57.517 35.8311 57.413 35.817L57.2934 35.8001L57.202 35.7861C57.1476 35.7753 57.0927 35.7674 57.0375 35.7621C56.7992 35.7376 56.5598 35.7254 56.3203 35.7256C54.4997 35.7305 52.7511 36.4371 51.4383 37.6986C50.1255 38.96 49.3496 40.6791 49.2722 42.4981H40.7981V31.7642H52.9341C53.1191 31.7641 53.3022 31.7276 53.4731 31.6567C53.6439 31.5857 53.7991 31.4818 53.9297 31.3507L56.7169 28.565C57.8741 29.1233 59.0006 29.7429 60.0919 30.4212C60.2583 30.5252 60.4446 30.5932 60.6389 30.6209L67.3313 31.5772V32.3309H63.9408V35.1561H67.327ZM52.1733 41.9229C52.3409 41.1028 52.748 40.3507 53.3431 39.7619C53.9381 39.1731 54.6944 38.7739 55.5162 38.6149C56.3381 38.4559 57.1887 38.5441 57.9604 38.8685C58.7321 39.1928 59.3904 39.7387 59.8519 40.4372C60.3133 41.1356 60.5574 41.9552 60.5531 42.7923C60.5488 43.6294 60.2964 44.4465 59.8278 45.1401C59.3592 45.8338 58.6954 46.3729 57.9204 46.6894C57.1454 47.0058 56.294 47.0854 55.4738 46.9179C54.9276 46.8095 54.4084 46.5938 53.9462 46.2833C53.484 45.9729 53.0879 45.5738 52.781 45.1093C52.474 44.6447 52.2623 44.1239 52.1579 43.577C52.0536 43.03 52.0588 42.4678 52.1733 41.9229ZM9.28266 41.9229C9.47815 40.9678 9.99664 40.1091 10.7509 39.4914C11.5051 38.8736 12.4491 38.5345 13.4241 38.5311C13.7075 38.5315 13.9902 38.5607 14.2678 38.6182C15.2225 38.8163 16.08 39.3367 16.6966 40.092C17.3131 40.8473 17.6512 41.7917 17.6541 42.7667C17.6532 43.0501 17.6245 43.3327 17.5683 43.6104C17.3423 44.7096 16.6892 45.6741 15.7526 46.292C14.8159 46.91 13.6723 47.1309 12.5729 46.9061C11.4734 46.6814 10.5082 46.0294 9.88917 45.0935C9.27014 44.1576 9.04795 43.0142 9.27141 41.9145L9.28266 41.9229ZM37.9828 31.7642V42.4896H20.4736C20.4008 40.6691 19.6265 38.9473 18.3126 37.6849C16.9988 36.4226 15.2475 35.7175 13.4255 35.7175C11.6035 35.7175 9.85213 36.4226 8.5383 37.6849C7.22448 38.9473 6.45009 40.6691 6.37734 42.4896H4.67578V37.1979C4.67683 36.7396 4.79849 36.2896 5.02855 35.8931C5.25861 35.4967 5.58896 35.1678 5.98641 34.9395C9.62793 32.8622 13.7472 31.768 17.9395 31.7642H37.9828ZM37.9828 25.055V28.9447H23.4984C27.9988 26.6478 32.9317 25.3226 37.9772 25.055H37.9828Z" fill="black"/>
</svg>
