<svg width="72" height="72" viewBox="0 0 72 72" fill="none" xmlns="http://www.w3.org/2000/svg">
<path d="M61.9199 44.5781C62.9487 41.6343 63.4717 38.5376 63.4667 35.4192C63.4646 35.0518 63.321 34.6993 63.066 34.4348C62.9375 34.3045 62.7842 34.2014 62.6151 34.1316C62.446 34.0617 62.2645 34.0267 62.0816 34.0284H37.0531V32.4365C39.5878 32.0971 41.9132 30.8498 43.598 28.9261C45.2828 27.0023 46.2126 24.5327 46.2149 21.9754C46.2149 20.437 45.8253 18.0309 42.7822 13.0275C41.615 11.1093 40.4577 9.47105 40.0217 8.85933C39.936 8.73839 39.8811 8.66386 39.8727 8.64558L36.7888 4.42683C36.659 4.25038 36.4896 4.10693 36.2942 4.00806C36.0987 3.90918 35.8828 3.85767 35.6638 3.85767C35.4447 3.85767 35.2288 3.90918 35.0334 4.00806C34.8379 4.10693 34.6685 4.25038 34.5388 4.42683L31.4605 8.63011L31.4422 8.65543C31.078 9.15183 29.8124 10.935 28.5467 13.0275C25.5036 18.0309 25.1141 20.437 25.1141 21.9754C25.1163 24.5327 26.0461 27.0023 27.7309 28.9261C29.4157 30.8498 31.7412 32.0971 34.2758 32.4365V34.0312H9.25017C8.88154 34.032 8.52822 34.1787 8.26756 34.4394C8.0069 34.7 7.86013 35.0534 7.85939 35.422C7.85507 39.7526 8.86442 44.0241 10.8067 47.8947C12.7489 51.7653 15.5702 55.1275 19.0447 57.7125C17.8242 58.0861 16.7783 58.8854 16.0972 59.9649C15.4161 61.0445 15.1451 62.3326 15.3334 63.5951C15.5217 64.8576 16.1569 66.0105 17.1234 66.8443C18.0899 67.6781 19.3236 68.1373 20.6 68.1384H50.7247C52.003 68.1398 53.2392 67.6814 54.2076 66.847C55.176 66.0126 55.812 64.8578 55.9996 63.5933C56.1872 62.3288 55.9139 61.0391 55.2295 59.9594C54.545 58.8798 53.4952 58.0823 52.2716 57.7125C56.7318 54.4007 60.0934 49.8246 61.9199 44.5781ZM29.8124 27.0914C28.5698 25.677 27.8859 23.858 27.8886 21.9754C27.8886 20.887 28.2036 18.9239 30.9191 14.4731C32.1031 12.5296 33.2535 10.9054 33.6922 10.2965L35.6609 7.60074L37.6156 10.2726C37.6874 10.3612 39.0402 12.2245 40.4028 14.4689C43.1183 18.9196 43.4333 20.8828 43.4333 21.9712C43.436 23.8538 42.7521 25.6728 41.5095 27.0871C41.5208 26.9381 41.5264 26.7975 41.5264 26.6582C41.5264 23.8612 37.5777 18.3304 36.7874 17.2504C36.6576 17.074 36.4882 16.9305 36.2927 16.8316C36.0973 16.7328 35.8814 16.6813 35.6624 16.6813C35.4433 16.6813 35.2274 16.7328 35.032 16.8316C34.8365 16.9305 34.6671 17.074 34.5374 17.2504C33.747 18.3304 29.7983 23.8598 29.7983 26.6582C29.7969 26.8017 29.8025 26.9423 29.8124 27.0914ZM35.6609 20.5157C37.1741 22.7995 38.7449 25.5614 38.7449 26.6625C38.7456 27.4528 38.4431 28.2132 37.8996 28.787C37.3562 29.3608 36.6133 29.7042 35.8241 29.7464H35.5077C34.7177 29.7043 33.9739 29.3612 33.4291 28.7876C32.8842 28.214 32.5798 27.4535 32.5784 26.6625C32.5784 25.5431 34.2125 22.694 35.6624 20.5157H35.6609ZM18.357 62.4093C18.3816 61.8596 18.6069 61.3379 18.9901 60.943C19.3734 60.548 19.8881 60.3073 20.4369 60.2662H50.7247C51.0682 60.2665 51.408 60.3361 51.7239 60.471C52.0398 60.6058 52.3252 60.803 52.563 61.0508C52.8008 61.2986 52.9862 61.5919 53.1079 61.913C53.2296 62.2342 53.2852 62.5766 53.2714 62.9198C53.225 64.2726 52.055 65.3723 50.6628 65.3723H20.458C19.8839 65.3291 19.348 65.0686 18.9592 64.6441C18.5705 64.2195 18.3581 63.6628 18.3655 63.0871V62.4093H18.357ZM47.4664 57.472H23.8597C20.0158 55.4218 16.7734 52.4039 14.4533 48.7167L14.4716 48.7265L14.532 48.7729L14.6094 48.8334C14.6222 48.8435 14.6358 48.8524 14.6502 48.8601C14.686 48.8883 14.7235 48.9141 14.7627 48.9375C14.7909 48.9546 14.8182 48.9734 14.8442 48.9937C14.8705 49.0194 14.903 49.0378 14.9385 49.0471L15.0931 49.14L15.1227 49.1596L15.1494 49.1751C15.2 49.2004 15.2506 49.2328 15.29 49.2609L15.3378 49.2904C15.3546 49.3034 15.3737 49.3129 15.3941 49.3186C15.4646 49.3614 15.5384 49.3986 15.6149 49.4296L15.6388 49.4395H15.6542C15.7293 49.4759 15.8063 49.5083 15.8849 49.5365L15.9383 49.5562L15.9566 49.5632L16.0592 49.604L16.1689 49.6476L16.2125 49.6659C16.2533 49.6771 16.2941 49.6926 16.3349 49.7067C16.3756 49.7207 16.4206 49.7376 16.4642 49.7503C16.4932 49.7628 16.5241 49.7699 16.5556 49.7714C16.6418 49.7975 16.7297 49.8177 16.8186 49.8318H16.8467L16.9874 49.8614C17.0324 49.8698 17.076 49.8782 17.128 49.8909H17.166C17.1857 49.8965 17.206 49.8998 17.2264 49.9007L17.5077 49.9373H17.5288C17.635 49.9526 17.7421 49.9611 17.8494 49.9626H17.9253C17.9788 49.9626 18.0322 49.9626 18.0856 49.9626C18.1391 49.9626 18.2038 49.9696 18.2628 49.9696C21.0416 49.9696 22.4745 48.4411 23.6277 47.2134L23.6586 47.1796C24.6711 46.1067 25.4024 45.3318 26.9619 45.3318C28.5214 45.3318 29.2639 46.1165 30.2891 47.2036L30.3917 47.1079L30.306 47.2218C31.4549 48.4467 32.8836 49.9696 35.6624 49.9696C38.4411 49.9696 39.8811 48.4411 41.0272 47.2134L41.0595 47.1796C42.0706 46.1067 42.8019 45.3318 44.3628 45.3318C45.9238 45.3318 46.6635 46.1165 47.6886 47.2036L47.7913 47.1079L47.7069 47.2218C48.8544 48.4467 50.2831 49.9696 53.0619 49.9696C53.1773 49.9716 53.2928 49.9674 53.4078 49.957H53.4908C53.5428 49.957 53.592 49.9486 53.6399 49.9457C53.6877 49.9429 53.7509 49.9387 53.8002 49.9331H53.817C53.9155 49.9218 54.0139 49.9092 54.0983 49.8965C54.1197 49.8946 54.1409 49.8909 54.1616 49.8853H54.1785C54.2764 49.8715 54.3732 49.8509 54.4681 49.8234H54.5117C54.5525 49.8121 54.5933 49.8037 54.6341 49.7953L54.7606 49.7657C54.7769 49.7635 54.7929 49.7597 54.8085 49.7545H54.8366C54.9269 49.731 55.0157 49.7019 55.1024 49.6673C55.1195 49.6623 55.1361 49.6552 55.1516 49.6462C55.2318 49.6203 55.3102 49.5893 55.3864 49.5534L55.4286 49.5365C55.4595 49.5225 55.4905 49.5112 55.5186 49.5C55.5467 49.4887 55.6128 49.462 55.6592 49.4409H55.6747L55.7127 49.4254L55.783 49.3917C55.8314 49.3709 55.8784 49.347 55.9236 49.32C55.941 49.3141 55.9575 49.3061 55.9728 49.2961C56.0527 49.2574 56.1281 49.2103 56.1978 49.1554L56.2316 49.1343L56.4088 49.0275H56.4355L56.4735 48.9979C56.5019 48.9762 56.5314 48.956 56.562 48.9375C56.6005 48.9138 56.6376 48.888 56.6731 48.8601L56.7069 48.839C56.7476 48.8126 56.7862 48.783 56.8222 48.7504L56.8588 48.7209C54.5518 52.4134 51.3115 55.432 47.465 57.472H47.4664ZM57.8291 43.9987C57.8039 44.014 57.7811 44.0329 57.7616 44.055L57.7292 44.0803C57.6674 44.1323 57.6097 44.1801 57.552 44.2378C57.5422 44.2476 57.5422 44.2476 57.538 44.249L57.5183 44.2589L57.5014 44.2757C57.4789 44.2982 57.4564 44.3179 57.4339 44.3376C57.4054 44.3614 57.3781 44.3868 57.3524 44.4136L57.3299 44.4318C57.311 44.4451 57.2932 44.4596 57.2764 44.4754C57.2422 44.5112 57.2055 44.5446 57.1667 44.5753L56.7772 44.9634C56.7479 44.9893 56.7224 45.0191 56.7013 45.052L56.6731 45.0829C56.652 45.1072 56.6289 45.1298 56.6042 45.1504L56.5395 45.2137L56.5283 45.225C56.5072 45.2517 56.4819 45.2756 56.458 45.3009C56.4279 45.329 56.3998 45.3591 56.3736 45.3909L56.3427 45.4246C55.3302 46.4976 54.5989 47.2725 53.0394 47.2725C51.4799 47.2725 50.7472 46.4976 49.7361 45.4246L49.6953 45.3811C48.5464 44.1576 47.1177 42.6346 44.3389 42.6346C41.5602 42.6346 40.1202 44.1632 38.9741 45.3909L38.9431 45.4246C37.9306 46.4976 37.1994 47.2725 35.6384 47.2725C34.0775 47.2725 33.3477 46.4976 32.3352 45.4246L32.1945 45.284C31.1708 44.19 30.1077 43.1746 28.3639 42.7921L28.2584 42.7739L28.153 42.7542C27.9206 42.7105 27.6858 42.6809 27.4499 42.6656C27.2811 42.6529 27.1152 42.6529 26.9394 42.6529C26.1716 42.6478 25.4092 42.7822 24.6894 43.0495C24.5628 43.1001 24.4363 43.1507 24.3266 43.2C24.2623 43.2258 24.2002 43.2568 24.141 43.2928C23.0652 43.837 22.3128 44.6357 21.6406 45.3417L21.5422 45.4457C20.7856 46.2501 20.1894 46.8857 19.2922 47.1445C18.9548 47.2387 18.6061 47.286 18.2558 47.2851C16.6949 47.2851 15.9538 46.499 14.9272 45.412C14.899 45.3772 14.8684 45.3443 14.8358 45.3136C14.8147 45.2911 14.7922 45.2686 14.7711 45.2446C14.7604 45.2277 14.7471 45.2125 14.7317 45.1996L14.7205 45.18L14.705 45.1631C14.6881 45.1462 14.6727 45.1279 14.6558 45.1082C14.6389 45.0886 14.6136 45.059 14.5925 45.0379L14.03 44.4754C14.0034 44.4469 13.9736 44.4215 13.9414 44.3995C13.9189 44.3784 13.8964 44.3573 13.8725 44.3376C13.8486 44.3179 13.8275 44.2982 13.805 44.2757L13.7755 44.2504L13.7544 44.2251C13.7206 44.1914 13.6827 44.1604 13.6447 44.1281C13.6131 44.1042 13.583 44.0784 13.5547 44.0507L13.5435 44.0353L13.5238 44.0254C13.5078 44.0088 13.4899 43.9941 13.4703 43.9818L13.3297 43.8806C13.3068 43.8587 13.2813 43.8398 13.2538 43.8243L13.2355 43.8131L13.1638 43.7611L13.1047 43.7175C13.0855 43.701 13.0648 43.6864 13.0428 43.6739L13.026 43.6626L13.0091 43.6471L12.9894 43.6373C12.9711 43.6275 12.9556 43.6162 12.9388 43.605C12.9136 43.586 12.8873 43.5686 12.86 43.5529L12.8108 43.5234L12.7672 43.4953L12.7517 43.4868C12.7302 43.4756 12.7091 43.4629 12.6885 43.4489C12.6589 43.432 12.6308 43.4137 12.6013 43.3996L12.583 43.3912L12.5605 43.38C12.5415 43.3671 12.5212 43.3563 12.5 43.3476C12.4446 43.3148 12.3867 43.2861 12.327 43.2618L12.2441 43.2211C12.2033 43.2028 12.1611 43.1831 12.1203 43.162C12.0795 43.1409 12.0374 43.1212 11.9966 43.1029C11.9845 43.0953 11.9718 43.0887 11.9586 43.0832L11.9291 43.0692L11.8236 43.0298L11.7899 43.0171C11.1555 41.0142 10.7775 38.9389 10.6649 36.8409H57.441V36.8282H60.6514C60.5344 38.9253 60.1565 40.9995 59.5264 43.0031C59.4744 43.0228 59.4294 43.0425 59.3788 43.0664H59.3633L59.262 43.1029C59.1854 43.1322 59.1107 43.1665 59.0385 43.2056L58.9738 43.2393C58.9056 43.2685 58.8398 43.3028 58.7769 43.342C58.7499 43.3533 58.7243 43.3679 58.701 43.3856L58.6883 43.394C58.6583 43.4093 58.6292 43.4262 58.6011 43.4446L58.5378 43.4812L58.5238 43.4896L58.4788 43.5178L58.431 43.5473C58.3703 43.579 58.3148 43.6198 58.2664 43.6682L58.2481 43.6795C58.2262 43.6926 58.2055 43.7076 58.1863 43.7245L58.1427 43.7526C58.1056 43.7761 58.0708 43.8029 58.0386 43.8328L58.0175 43.8511C58.0016 43.862 57.9865 43.8743 57.9725 43.8876C57.9219 43.9215 57.8736 43.9587 57.8277 43.9987H57.8291Z" fill="black"/>
</svg>
