<svg width="72" height="72" viewBox="0 0 72 72" fill="none" xmlns="http://www.w3.org/2000/svg">
<path d="M59.9502 24.7328L56.8817 22.4265V11.3467C57.2576 11.1427 57.5719 10.8416 57.7917 10.4748C58.0116 10.1079 58.1291 9.68887 58.1319 9.26121V6.23637C58.1311 5.60592 57.8804 5.00151 57.4346 4.55571C56.9888 4.10992 56.3844 3.85914 55.7539 3.8584H46.2308C45.6003 3.85914 44.9959 4.10992 44.5501 4.55571C44.1043 5.00151 43.8536 5.60592 43.8528 6.23637V9.26121C43.8556 9.68887 43.9731 10.1079 44.193 10.4748C44.4128 10.8416 44.7271 11.1427 45.103 11.3467V22.4265L42.0345 24.7328C40.6619 25.7669 39.5476 27.105 38.779 28.6421C38.0104 30.1793 37.6085 31.8736 37.6049 33.5921V35.8168C37.5946 35.8829 37.5904 35.9497 37.5922 36.0165C37.5924 36.0527 37.5948 36.0889 37.5992 36.1248C37.6006 36.1515 37.6006 36.1783 37.5992 36.205V63.3625C37.5992 64.6305 38.103 65.8467 38.9996 66.7433C39.8963 67.64 41.1124 68.1437 42.3805 68.1437H59.6155C60.8835 68.1437 62.0997 67.64 62.9963 66.7433C63.893 65.8467 64.3967 64.6305 64.3967 63.3625V33.5936C64.3874 31.874 63.9813 30.1799 63.2101 28.643C62.4388 27.1061 61.3232 25.7679 59.9502 24.7328ZM55.3517 6.63996V8.85902H46.633V6.63996H55.3517ZM46.7469 35.9996C46.7461 35.6311 46.5993 35.278 46.3386 35.0175C46.0779 34.7571 45.7246 34.6106 45.3561 34.6103H40.385V33.5809C40.3872 32.2952 40.6881 31.0277 41.2641 29.8782C41.84 28.7287 42.6752 27.7289 43.7038 26.9575L47.3291 24.2321C47.5005 24.1019 47.6398 23.9339 47.7361 23.7413C47.8324 23.5487 47.8832 23.3366 47.8845 23.1212V11.6392H54.1016V23.1212C54.1027 23.3368 54.1534 23.5492 54.2497 23.7421C54.346 23.935 54.4854 24.1031 54.657 24.2336L58.2824 26.9575C59.3085 27.7335 60.1413 28.7363 60.7158 29.8874C61.2903 31.0386 61.5909 32.307 61.5941 33.5936V34.6286H56.6047C56.4184 34.6226 56.2329 34.6542 56.059 34.7214C55.8852 34.7886 55.7267 34.89 55.5928 35.0197C55.459 35.1494 55.3525 35.3046 55.2798 35.4762C55.2071 35.6478 55.1697 35.8323 55.1697 36.0186C55.1697 36.205 55.2071 36.3895 55.2798 36.5611C55.3525 36.7327 55.459 36.8879 55.5928 37.0176C55.7267 37.1472 55.8852 37.2487 56.059 37.3159C56.2329 37.3831 56.4184 37.4146 56.6047 37.4087H61.5941V58.5981H40.385V37.3961H45.3561C45.5392 37.3959 45.7204 37.3596 45.8894 37.2893C46.0584 37.219 46.2119 37.116 46.3411 36.9863C46.4703 36.8566 46.5726 36.7027 46.6423 36.5334C46.7119 36.3641 46.7474 36.1827 46.7469 35.9996ZM61.5941 63.3512C61.5948 63.8787 61.3864 64.385 61.0144 64.7591C60.6425 65.1331 60.1374 65.3444 59.6099 65.3467H42.3819C41.8526 65.3463 41.3452 65.136 40.9708 64.7619C40.5964 64.3878 40.3858 63.8805 40.385 63.3512V61.3825H61.5941V63.3512Z" fill="black"/>
<path d="M30.3944 24.9328C30.6543 24.7771 30.856 24.5405 30.9686 24.2592C31.0812 23.9779 31.0984 23.6674 31.0177 23.3754C30.9369 23.0833 30.7626 22.8258 30.5215 22.6423C30.2804 22.4588 29.9858 22.3594 29.6828 22.3594H10.7983C10.4298 22.3601 10.0766 22.5069 9.81619 22.7676C9.55575 23.0283 9.4093 23.3817 9.40893 23.7502C9.40827 23.9902 9.4705 24.2262 9.58942 24.4347C9.70834 24.6431 9.87981 24.8168 10.0867 24.9384L7.26299 27.758C7.1341 27.8873 7.03208 28.0409 6.96281 28.2098C6.89354 28.3788 6.85839 28.5598 6.8594 28.7423V61.7344C6.86248 62.1022 7.007 62.4547 7.26299 62.7188L10.0881 65.5425C9.82626 65.6973 9.6226 65.9339 9.50861 66.2159C9.39462 66.498 9.37663 66.8097 9.45742 67.1029C9.53822 67.3962 9.7133 67.6547 9.95565 67.8385C10.198 68.0224 10.4941 68.1214 10.7983 68.1202H29.6828C30.0513 68.1198 30.4047 67.9733 30.6654 67.7129C30.9261 67.4525 31.0729 67.0993 31.0736 66.7308C31.0744 66.4906 31.0122 66.2543 30.8933 66.0456C30.7744 65.8369 30.6028 65.6629 30.3958 65.5411L33.2196 62.7188C33.3483 62.5893 33.4503 62.4357 33.5195 62.2668C33.5888 62.0979 33.624 61.9169 33.6231 61.7344V28.7452C33.6193 28.3775 33.4749 28.0253 33.2196 27.7608L30.3944 24.9328ZM28.8686 63.1294L26.6496 65.347H13.8063L11.5886 63.1294H28.8686ZM11.5886 27.3544L13.8063 25.1367H26.6622L28.8813 27.3544H11.5886ZM30.8416 34.695C28.2833 35.0325 25.935 36.2884 24.2339 38.2287C22.5328 40.169 21.5949 42.6615 21.5949 45.2419C21.5949 47.8223 22.5328 50.3147 24.2339 52.255C25.935 54.1953 28.2833 55.4512 30.8416 55.7887V60.3478H9.6269V30.1345H30.8416V34.695ZM24.3728 45.2419C24.3742 43.3991 25.0226 41.6153 26.2048 40.2018C27.387 38.7882 29.0281 37.8347 30.8416 37.5075V52.9762C29.0278 52.6496 27.3865 51.6962 26.2042 50.2825C25.0218 48.8689 24.3736 47.0848 24.3728 45.2419Z" fill="black"/>
<path d="M50.9926 37.3837C51.3596 37.3791 51.7112 37.2359 51.977 36.9829C52.1074 36.8545 52.2105 36.7012 52.2804 36.5321C52.3502 36.3629 52.3852 36.1815 52.3834 35.9985C52.3807 35.6312 52.2372 35.2789 51.9826 35.0141C51.8543 34.8837 51.701 34.7805 51.5318 34.7107C51.3627 34.6409 51.1812 34.6058 50.9983 34.6077C50.6308 34.6099 50.2783 34.7534 50.0139 35.0085C49.8837 35.137 49.7806 35.2904 49.7108 35.4595C49.6409 35.6286 49.6058 35.81 49.6075 35.9929C49.6094 36.3604 49.7529 36.713 50.0083 36.9773C50.1366 37.1077 50.2899 37.2109 50.459 37.2807C50.6282 37.3506 50.8097 37.3856 50.9926 37.3837Z" fill="black"/>
</svg>
