<svg width="72" height="72" viewBox="0 0 72 72" fill="none" xmlns="http://www.w3.org/2000/svg">
<path d="M24.1816 68.7233C24.9747 68.7234 25.7665 68.6588 26.5491 68.5301C26.8002 68.4894 27.0584 68.4399 27.3143 68.3831C28.7487 68.0662 30.1267 67.5335 31.4012 66.8032C35.2055 64.6304 38.2021 60.6638 39.8387 55.634C40.3894 53.9312 40.7788 52.1803 41.0018 50.4045C41.5442 50.4575 42.0915 50.487 42.6441 50.487C45.9955 50.487 49.5161 49.518 52.9747 47.626C57.4455 45.1804 61.4042 41.4008 64.4229 36.6959C71.2456 26.0661 71.4322 13.4456 64.8677 6.68809C63.7411 5.52613 62.4268 4.56243 60.9798 3.83748C56.6268 1.65343 51.2678 1.72234 45.8908 4.03112C40.5926 6.30573 35.7426 10.5702 32.2338 16.038C31.1965 17.6531 30.2943 19.351 29.5364 21.1145C26.4619 18.8537 23.0114 17.5522 19.4749 17.5077C18.3675 17.4939 17.2622 17.6071 16.1806 17.8452C15.6838 17.9544 15.1933 18.0905 14.7112 18.253C10.0926 19.796 6.35984 23.6414 4.20082 29.0811C2.07317 34.4389 1.67182 40.8846 3.07034 47.2289C5.83756 59.7888 14.8266 68.7233 24.1816 68.7233ZM64.0019 9.09995C66.2714 11.9028 67.4723 15.8113 67.4034 20.2441C67.3252 25.2948 65.5941 30.7066 62.5294 35.4809C59.7135 39.8697 56.0361 43.3869 51.895 45.6522C48.3676 47.5817 44.6687 48.4599 41.3482 48.1771C47.8892 43.0401 52.2938 35.6606 53.7105 27.465C54.8424 20.954 57.9963 14.9648 62.7246 10.3476L64.0019 9.09995ZM58.9367 7.91701L60.6675 6.22712C60.8081 6.30995 60.9496 6.39502 61.0894 6.48404C61.5604 6.78654 62.0099 7.12118 62.4349 7.48557L61.1526 8.73713C56.0858 13.6848 52.7061 20.1028 51.4934 27.08C50.2684 34.1664 46.6457 40.6166 41.232 45.3504C41.2016 44.4403 41.1333 43.5242 41.0271 42.6022C45.6785 37.765 48.7766 31.6472 49.9232 25.0352C51.0421 18.5196 54.1977 12.5265 58.9367 7.91701ZM34.1271 17.2531C40.3508 7.55392 50.7287 2.54513 58.4782 5.22066L57.3649 6.3077C52.2868 11.2467 48.9053 17.6685 47.7064 24.6501C46.7385 30.2347 44.2758 35.4527 40.5799 39.7496C40.5303 39.4996 40.4789 39.2494 40.4238 38.9992C38.9325 32.2307 35.6063 26.4555 31.3517 22.6011C32.1092 20.7364 33.0384 18.946 34.1271 17.2531ZM20.5567 21.6095L20.5745 19.8236C24.1615 20.194 27.7781 22.1017 30.8703 25.2779C34.3937 28.8977 37.0064 33.9428 38.2273 39.4835C39.3992 44.8042 39.2116 50.2928 37.7001 54.9382C36.5429 58.4934 34.6541 61.4372 32.2745 63.451C33.2506 55.1912 31.1302 46.8628 26.3232 40.0754C22.5605 34.7724 20.5442 28.4284 20.5546 21.9261C20.5546 21.8212 20.5553 21.7175 20.5567 21.6095ZM16.1622 22.578L16.1851 20.1593C16.3439 20.1171 16.5034 20.0779 16.664 20.0426C17.2112 19.9223 17.7661 19.8399 18.3246 19.7958L18.3069 21.5848C18.3053 21.6993 18.3053 21.812 18.3053 21.9265C18.294 28.8943 20.4546 35.6923 24.4866 41.375C29.0326 47.7933 31.0023 55.6849 30.0058 63.4867L29.8 65.1125C29.124 65.4612 28.417 65.7463 27.6883 65.9642L27.8429 64.7381C28.0206 63.3316 28.1099 61.9153 28.1101 60.4976C28.1222 53.5282 25.9615 46.7284 21.9287 41.0443C18.1017 35.6538 16.0832 29.1885 16.1622 22.578ZM13.9263 21.0004L13.9115 22.5561C13.827 29.6395 15.9907 36.5672 20.0916 42.3434C23.855 47.6476 25.8715 53.993 25.8606 60.4967C25.8602 61.82 25.7768 63.1419 25.6108 64.4548L25.3627 66.416C21.3582 66.7957 17.1933 65.1935 13.5453 61.8457C9.54387 58.1733 6.60424 52.8104 5.26788 46.7449C2.78684 35.4911 6.56065 24.6043 13.9263 21.0004Z" fill="black"/>
<path fill-rule="evenodd" clip-rule="evenodd" d="M45.7726 3.75566C51.213 1.41972 56.6665 1.33779 61.1146 3.56954C62.5916 4.30958 63.9333 5.29334 65.0833 6.47947C71.7826 13.3759 71.5396 26.1639 64.6756 36.8581C61.6325 41.6011 57.6379 45.4174 53.119 47.8894C49.6235 49.8015 46.0538 50.7872 42.6444 50.7872C42.1794 50.7872 41.7187 50.7667 41.2622 50.7292C41.0319 52.4253 40.6512 54.0976 40.1244 55.7265C38.4698 60.8117 35.4322 64.8467 31.5502 67.0638C30.2495 67.8091 28.8433 68.3527 27.3796 68.6761C27.1183 68.7341 26.8547 68.7847 26.598 68.8262C25.7993 68.9576 24.9912 69.0235 24.1819 69.0234C14.6318 69.0234 5.56164 59.9301 2.77755 47.2936C1.36784 40.8985 1.76967 34.391 3.92219 28.9705C6.10655 23.4671 9.89668 19.5455 14.6161 17.9687C15.1083 17.8028 15.6092 17.6638 16.1165 17.5523C17.2204 17.3093 18.3486 17.1938 19.4789 17.2078C22.9713 17.2519 26.3708 18.4969 29.4104 20.6535C30.1432 18.9974 31.0028 17.4001 31.9816 15.876C35.5185 10.3645 40.4126 6.05682 45.7726 3.75566ZM60.8455 4.10582C56.5876 1.96948 51.3232 2.02536 46.0094 4.30698C40.773 6.55502 35.9672 10.7762 32.4865 16.2002C31.4581 17.8014 30.5637 19.4848 29.8122 21.2332L29.6631 21.5801L29.3589 21.3564C26.326 19.1262 22.935 17.8515 19.4714 17.8078C18.3869 17.7943 17.3045 17.9052 16.2454 18.1383C15.7592 18.2452 15.279 18.3784 14.8073 18.5374C10.2896 20.0467 6.61348 23.8162 4.47985 29.1919C2.37706 34.4871 1.97618 40.871 3.36349 47.1645C6.11385 59.6479 15.0218 68.4234 24.1819 68.4234C24.9587 68.4235 25.7341 68.3602 26.5006 68.2342C26.7459 68.1945 26.9992 68.146 27.2496 68.0904C28.6543 67.7801 30.0041 67.2583 31.2523 66.543C34.9789 64.4146 37.9349 60.5159 39.5535 55.5419C40.0984 53.8569 40.4838 52.1244 40.7044 50.3673L40.7407 50.0777L41.0312 50.1061C41.5649 50.1582 42.1024 50.1872 42.6444 50.1872C45.9377 50.1872 49.4092 49.2348 52.831 47.363C57.2535 44.9438 61.1764 41.2009 64.1706 36.5341C70.9519 25.9687 71.0823 13.5158 64.6527 6.89733C63.5497 5.75959 62.2623 4.81566 60.8455 4.10582ZM45.8629 6.86589C41.5746 8.97013 37.4644 12.6082 34.3798 17.4153C33.3388 19.034 32.4448 20.7431 31.709 22.5212C35.9397 26.4206 39.2319 32.1946 40.717 38.9348C40.728 38.9845 40.7387 39.034 40.7494 39.0836C44.1897 34.9198 46.4875 29.9279 47.411 24.5991C48.6208 17.5552 52.0325 11.0761 57.1558 6.09299C57.1557 6.09304 57.1559 6.09294 57.1558 6.09299L57.9132 5.35356C54.2371 4.24804 49.9777 4.84678 45.8629 6.86589ZM45.5986 6.32724C49.9904 4.17222 54.6065 3.56668 58.5764 4.93729L59.0359 5.09593L57.5747 6.52255C52.5421 11.4173 49.1905 17.782 48.0023 24.7011C47.0252 30.3391 44.5389 35.6073 40.8076 39.9454L40.4059 40.4125L40.2859 39.8082C40.2365 39.5593 40.1856 39.3114 40.1311 39.0639C38.6517 32.3495 35.3541 26.6318 31.1505 22.8236L30.995 22.6827L31.074 22.4883C31.8385 20.6065 32.7761 18.7997 33.8748 17.0913C37.014 12.1992 41.2046 8.48331 45.5986 6.32724ZM60.6223 5.85239L60.82 5.96883C60.962 6.0525 61.1068 6.13954 61.2508 6.2312L61.2517 6.23182C61.7343 6.54178 62.195 6.88467 62.6304 7.25804L62.8793 7.47145L61.3625 8.95198C56.3408 13.8555 52.9912 20.2162 51.7893 27.1313C50.5526 34.2854 46.8952 40.7973 41.4297 45.5764L40.9535 45.9928L40.9324 45.3606C40.9023 44.4587 40.8346 43.5508 40.7293 42.6367L40.7131 42.4963L40.8111 42.3944C45.421 37.6004 48.4915 31.5371 49.6278 24.9841C50.7575 18.4062 53.9434 12.3557 58.7277 7.70216L60.6223 5.85239ZM60.7122 6.60318L59.1465 8.13187C54.453 12.697 51.3272 18.6331 50.2191 25.0861C49.0703 31.7107 45.9798 37.8441 41.3413 42.7083C41.4156 43.3769 41.4701 44.0426 41.5048 44.7052C46.6064 40.0586 50.0206 33.8405 51.198 27.0291C52.4215 19.9897 55.8313 13.5143 60.9433 8.52269L61.9877 7.50328C61.6488 7.22859 61.295 6.97274 60.9279 6.73691C60.8566 6.69153 60.7846 6.64706 60.7122 6.60318ZM64.028 8.65545L64.2352 8.91136C66.5582 11.7801 67.7734 15.7618 67.7036 20.2489C67.6245 25.3621 65.8732 30.8277 62.7821 35.6431C59.942 40.0696 56.2289 43.6237 52.0392 45.9156C48.4703 47.8678 44.7129 48.7649 41.3229 48.4762L40.5643 48.4116L41.1631 47.9413C47.6458 42.8502 52.0111 35.5366 53.4151 27.4141C54.5578 20.841 57.7419 14.7944 62.5152 10.1331L64.028 8.65545ZM63.973 9.54789L62.9344 10.5624C58.2513 15.1356 55.1274 21.0676 54.0063 27.5166C52.6214 35.5277 48.4069 42.766 42.1439 47.9225C45.1937 48.0144 48.5381 47.1468 51.7513 45.3892C55.8439 43.1504 59.4855 39.6701 62.2771 35.3191C65.3155 30.5858 67.0265 25.2277 67.1037 20.2396C67.1697 15.9975 66.0578 12.2653 63.973 9.54789ZM18.6281 19.471L18.6071 21.5879V21.589C18.6056 21.7011 18.6056 21.8119 18.6056 21.9267C18.5944 28.832 20.7356 35.5697 24.7316 41.2015C29.321 47.6813 31.3097 55.6485 30.3036 63.5249L30.0781 65.3069L29.9378 65.3792C29.2453 65.7365 28.521 66.0286 27.7744 66.2518L27.3332 66.3837L27.5455 64.7007C27.7216 63.3066 27.8101 61.9028 27.8104 60.4977C27.8224 53.5907 25.681 46.8513 21.6843 41.2182C17.8206 35.7759 15.7828 29.2487 15.8625 22.575C15.8625 22.5751 15.8625 22.5749 15.8625 22.575L15.8876 19.9282L16.1083 19.8695C16.2706 19.8264 16.4344 19.7861 16.5998 19.7497C17.1605 19.6265 17.729 19.5421 18.3012 19.4969L18.6281 19.471ZM20.278 19.4915L20.6055 19.5254C24.2769 19.9045 27.9554 21.8537 31.0855 25.0688C34.6525 28.7334 37.2891 33.8307 38.5205 39.4192C39.7026 44.7859 39.5155 50.3293 37.9856 55.0312C36.8142 58.6298 34.8978 61.6244 32.4685 63.6801L31.8874 64.1718L31.9768 63.4159C32.9442 55.23 30.8428 46.976 26.0788 40.2492C22.28 34.8953 20.2443 28.4905 20.2549 21.9258C20.2549 21.8197 20.2556 21.7149 20.257 21.6059L20.278 19.4915ZM18.0216 20.1253C17.5871 20.1717 17.1555 20.242 16.7286 20.3357C16.6467 20.3537 16.5649 20.3728 16.4832 20.3929L16.4624 22.5814C16.3842 29.1284 18.3833 35.532 22.1735 40.8708C26.2424 46.6057 28.4226 53.4665 28.4104 60.4982C28.4101 61.9284 28.3201 63.357 28.1408 64.7759L28.045 65.5353C28.5507 65.3624 29.0443 65.156 29.5226 64.9171L29.7084 63.4492C30.6954 55.7221 28.7446 47.9057 24.2422 41.5487C20.1742 35.8153 17.9943 28.9566 18.0056 21.9267M18.0071 21.5815C18.0056 21.6978 18.0056 21.812 18.0056 21.9256V21.9267M18.0071 21.5815C18.0071 21.5813 18.007 21.5817 18.0071 21.5815ZM20.8714 20.1604L20.857 21.6131C20.8556 21.7199 20.8549 21.8227 20.8549 21.9263C20.8445 28.3663 22.8415 34.6498 26.5681 39.902C31.2671 46.5369 33.4217 54.6315 32.6555 62.7083C34.7172 60.7622 36.3675 58.0636 37.415 54.8456C38.9082 50.2567 39.0963 44.8229 37.9345 39.5483C36.7241 34.0551 34.1353 29.0623 30.6556 25.4873C27.6964 22.4478 24.2676 20.6014 20.8714 20.1604ZM14.2311 20.5175L14.2117 22.5595C14.128 29.5795 16.2723 36.4455 20.3364 42.1699C24.1358 47.5249 26.1718 53.931 26.1608 60.497C26.1604 61.8328 26.0762 63.1673 25.9087 64.4925L25.6305 66.6922L25.3913 66.7149C21.2837 67.1043 17.0382 65.4582 13.3427 62.0669C9.28951 58.347 6.32276 52.9264 4.97511 46.8096C3.72371 41.1334 4.04775 35.5423 5.62069 30.9077C7.19286 26.2753 10.0215 22.5772 13.7947 20.731L14.2311 20.5175ZM6.18886 31.1005C4.65374 35.6237 4.33139 41.1029 5.56104 46.6804C6.88611 52.6947 9.79862 57.9999 13.7484 61.6249C17.2755 64.8616 21.2668 66.4232 25.0958 66.1378L25.3134 64.4173C25.4778 63.1169 25.5604 61.8075 25.5608 60.4968C25.5717 54.0555 23.5745 47.7705 19.8471 42.5172C15.7097 36.6894 13.5266 29.6998 13.6118 22.5531C13.6118 22.5532 13.6118 22.553 13.6118 22.5531L13.6218 21.4946C10.2437 23.3196 7.66191 26.7602 6.18886 31.1005Z" fill="black"/>
<path d="M40.8025 16.2733C41.0868 16.2737 41.3606 16.166 41.5685 15.9721C42.0404 15.5331 42.5366 15.1087 43.0431 14.7107C43.1593 14.6194 43.2563 14.5061 43.3287 14.3773C43.4011 14.2485 43.4474 14.1068 43.4649 13.9601C43.4825 13.8134 43.471 13.6647 43.4311 13.5224C43.3913 13.3802 43.3237 13.2471 43.2324 13.131C43.1412 13.0148 43.0279 12.9178 42.8991 12.8454C42.7703 12.773 42.6285 12.7267 42.4818 12.7091C42.3351 12.6916 42.1864 12.703 42.0442 12.7429C41.9019 12.7828 41.7689 12.8503 41.6527 12.9416C41.0976 13.3776 40.5536 13.8432 40.0356 14.3245C39.8701 14.4785 39.7548 14.6786 39.7047 14.899C39.6546 15.1194 39.6721 15.3497 39.7548 15.5601C39.8375 15.7704 39.9816 15.9509 40.1684 16.0781C40.3552 16.2054 40.5765 16.2734 40.8025 16.2733Z" fill="black"/>
<path d="M35.0537 23.1811C35.186 23.247 35.3299 23.2862 35.4773 23.2964C35.6247 23.3066 35.7727 23.2876 35.9127 23.2406C36.0528 23.1936 36.1822 23.1194 36.2936 23.0224C36.4049 22.9253 36.4961 22.8072 36.5618 22.6749C37.2787 21.234 38.1422 19.8708 39.1388 18.607C39.2324 18.4913 39.3022 18.3581 39.3439 18.2152C39.3857 18.0723 39.3987 17.9225 39.3822 17.7745C39.3657 17.6265 39.3199 17.4833 39.2476 17.3532C39.1753 17.223 39.0779 17.1085 38.961 17.0162C38.8441 16.924 38.7101 16.8559 38.5667 16.8159C38.4233 16.7758 38.2733 16.7647 38.1256 16.783C37.9778 16.8013 37.8352 16.8488 37.7059 16.9227C37.5766 16.9966 37.4633 17.0954 37.3725 17.2134C36.2798 18.5989 35.333 20.0934 34.5472 21.6732C34.4145 21.9404 34.3933 22.2493 34.4882 22.5321C34.5832 22.8148 34.7866 23.0483 35.0537 23.1811Z" fill="black"/>
<path d="M13.2892 58.1118C13.4831 58.3386 13.7592 58.4791 14.0567 58.5023C14.3542 58.5256 14.6487 58.4297 14.8755 58.2357C15.1023 58.0418 15.2428 57.7657 15.266 57.4682C15.2893 57.1707 15.1934 56.8761 14.9994 56.6493C14.5805 56.1593 14.1769 55.6458 13.8006 55.1233C13.6262 54.8812 13.3628 54.7182 13.0683 54.6704C12.7738 54.6225 12.4723 54.6936 12.2302 54.868C11.9881 55.0424 11.8252 55.3058 11.7773 55.6003C11.7294 55.8948 11.8005 56.1963 11.9749 56.4384C12.3882 57.0116 12.8303 57.5745 13.2892 58.1118Z" fill="black"/>
<path d="M16.0649 60.8941C17.4035 62.0438 18.8571 63.0523 20.4028 63.9035C20.5322 63.9752 20.6746 64.0208 20.8217 64.0374C20.9688 64.0541 21.1177 64.0416 21.26 64.0006C21.4022 63.9595 21.5349 63.8909 21.6506 63.7985C21.7662 63.7061 21.8625 63.5917 21.9339 63.462C22.0053 63.3324 22.0503 63.1899 22.0665 63.0427C22.0828 62.8956 22.0698 62.7467 22.0283 62.6046C21.9869 62.4625 21.9178 62.3299 21.825 62.2146C21.7322 62.0992 21.6176 62.0033 21.4877 61.9323C20.0779 61.156 18.752 60.2363 17.5311 59.1877C17.3044 58.9961 17.0112 58.9018 16.7153 58.9254C16.4194 58.949 16.1448 59.0886 15.9514 59.3138C15.758 59.5389 15.6614 59.8314 15.6826 60.1274C15.7039 60.4235 15.8413 60.6989 16.0649 60.8941Z" fill="black"/>
</svg>
