<svg width="72" height="72" viewBox="0 0 72 72" fill="none" xmlns="http://www.w3.org/2000/svg">
<g clip-path="url(#clip0_1949:12687)">
<path d="M12.207 20.3755C11.8341 20.3755 11.4764 20.5237 11.2127 20.7874C10.9489 21.0511 10.8008 21.4088 10.8008 21.7817C10.8008 22.1547 10.9489 22.5124 11.2127 22.7761C11.4764 23.0398 11.8341 23.188 12.207 23.188H12.2155C12.5884 23.1869 12.9457 23.0376 13.2086 22.7731C13.4715 22.5086 13.6186 22.1505 13.6175 21.7775C13.6164 21.4046 13.4671 21.0473 13.2026 20.7844C12.9381 20.5215 12.58 20.3744 12.207 20.3755Z" fill="black"/>
<path d="M10.7188 28.2217C10.3458 28.2217 9.9881 28.3698 9.72438 28.6336C9.46066 28.8973 9.3125 29.255 9.3125 29.6279C9.3125 30.0009 9.46066 30.3586 9.72438 30.6223C9.9881 30.886 10.3458 31.0342 10.7188 31.0342C11.0917 31.0342 11.4494 30.886 11.7131 30.6223C11.9768 30.3586 12.125 30.0009 12.125 29.6279C12.125 29.255 11.9768 28.8973 11.7131 28.6336C11.4494 28.3698 11.0917 28.2217 10.7188 28.2217Z" fill="black"/>
<path d="M20.7266 21.78C20.3536 21.78 19.9959 21.9282 19.7322 22.1919C19.4685 22.4556 19.3203 22.8133 19.3203 23.1863C19.3203 23.5592 19.4685 23.9169 19.7322 24.1807C19.9959 24.4444 20.3536 24.5925 20.7266 24.5925H20.735C21.108 24.5914 21.4652 24.4422 21.7281 24.1777C21.9911 23.9132 22.1381 23.555 22.137 23.1821C22.1359 22.8091 21.9867 22.4519 21.7222 22.1889C21.4577 21.926 21.0995 21.7789 20.7266 21.78Z" fill="black"/>
<path d="M70.508 50.5055C69.6642 49.0838 68.4928 47.6241 67.0866 46.208V30.5325C68.6208 28.246 69.397 25.9144 69.3956 23.5969C69.389 21.3195 68.6057 19.1125 67.1752 17.3405C65.3611 15.0469 62.5781 13.4016 59.3438 12.6942C56.0348 11.97 52.5445 12.2724 49.2342 13.5633H32.6405C31.7024 13.1526 30.7259 12.836 29.7253 12.6183C26.5064 11.9152 23.1159 12.1796 19.8816 13.3847C16.6472 12.1796 13.2595 11.9138 10.0378 12.6183C6.81609 13.3228 4.02609 14.9752 2.21062 17.266C0.783747 19.0388 0.00397333 21.2452 0 23.521C0 25.8385 0.77625 28.17 2.31188 30.4566V46.8282C2.31188 50.6053 4.93734 53.4544 8.41781 53.4544H13.2469C13.1131 53.9788 13.0451 54.5178 13.0444 55.0589C13.0584 56.5341 13.6617 57.7519 14.7909 58.5816C15.8611 59.3691 17.3728 59.7671 19.2839 59.7671H40.6744C41.0473 59.7671 41.405 59.6189 41.6687 59.3552C41.9325 59.0915 42.0806 58.7338 42.0806 58.3608C42.0806 57.9879 41.9325 57.6302 41.6687 57.3664C41.405 57.1027 41.0473 56.9546 40.6744 56.9546H19.2839C15.8738 56.9546 15.8611 55.5075 15.8569 55.0322C15.8372 52.9594 18.2362 48.9853 23.5477 45.1617C24.1481 44.73 24.8667 44.2435 25.695 43.7358C26.7595 47.6283 28.703 48.2696 29.8645 48.2696C31.0261 48.2696 32.5969 47.6803 33.6614 44.8707C34.1775 43.515 34.5234 41.7432 34.6584 39.8011C35.6161 39.5325 36.6159 39.2977 37.6566 39.1092C37.6228 42.7163 38.302 46.6608 40.0205 48.5157C40.912 49.4775 41.8697 49.6786 42.5166 49.6786C43.1634 49.6786 44.1267 49.4761 45.0211 48.5072C46.7648 46.6158 47.4328 42.601 47.3766 38.9447C48.3827 39.1115 49.3793 39.3316 50.362 39.6042C50.6292 43.9636 52.0031 48.2682 55.1728 48.2682C56.3484 48.2682 58.313 47.6142 59.3677 43.6444C61.2753 44.8404 63.0576 46.2255 64.6875 47.7788C64.6909 47.7829 64.6946 47.7866 64.6987 47.79C66.1162 49.1597 67.2834 50.5744 68.0948 51.9413C69.1031 53.64 69.4406 55.118 68.9977 55.8957C68.6081 56.5791 67.4606 56.9546 65.7633 56.9546H53.2969C52.9239 56.9546 52.5662 57.1027 52.3025 57.3664C52.0388 57.6302 51.8906 57.9879 51.8906 58.3608C51.8906 58.7338 52.0388 59.0915 52.3025 59.3552C52.5662 59.6189 52.9239 59.7671 53.2969 59.7671H65.7548C69.2803 59.7671 70.7878 58.4185 71.4319 57.2864C72.1237 56.0714 72.5231 53.9114 70.5023 50.5055H70.508ZM29.8673 45.4571C29.5298 45.4571 28.7536 44.6639 28.2445 42.3127C29.3854 41.7354 30.5561 41.219 31.7517 40.7658C31.3664 43.8877 30.4116 45.4571 29.8645 45.4571H29.8673ZM34.9144 29.205C34.7458 29.443 34.6553 29.7276 34.6556 30.0192V36.9099C25.2239 39.3539 17.4614 45.3474 14.4239 50.6433H8.41781C6.25641 50.6433 5.12437 48.7238 5.12437 46.8296V30.0192C5.12465 29.7276 5.03423 29.443 4.86562 29.205C2.30766 25.5938 2.14734 21.8841 4.42266 19.0125C7.07203 15.6713 13.0528 13.6308 19.3556 16.2C19.6961 16.3379 20.0769 16.3379 20.4173 16.2C26.7216 13.6322 32.7038 15.6741 35.3531 19.0125C37.6298 21.8841 37.4625 25.5994 34.9116 29.2036L34.9144 29.205ZM42.9595 46.6003C42.7148 46.8661 42.57 46.8661 42.5236 46.8661C42.4772 46.8661 42.3337 46.8661 42.0905 46.6046C41.0484 45.4796 40.3931 42.158 40.4831 38.7296C41.2186 38.6621 43.0369 38.6002 43.1859 38.6002C43.65 38.6002 44.1084 38.6142 44.5627 38.6396C44.6639 42.1003 44.0156 45.4557 42.9567 46.6003H42.9595ZM55.1784 45.4571C54.6286 45.4571 53.6414 43.7864 53.273 40.5675C54.4876 41.0399 55.6745 41.5808 56.828 42.1875C56.3217 44.6386 55.523 45.4641 55.1756 45.4641L55.1784 45.4571ZM64.9294 28.6875H50.5041C50.1311 28.6875 49.7734 28.8357 49.5097 29.0994C49.246 29.3631 49.0978 29.7208 49.0978 30.0938C49.0978 30.4667 49.246 30.8244 49.5097 31.0882C49.7734 31.3519 50.1311 31.5 50.5041 31.5H64.2741V43.6894C62.8408 42.5434 61.326 41.5033 59.7417 40.5774C55.9716 38.3738 50.0737 35.7821 43.1831 35.7821C41.2649 35.7657 39.3498 35.9381 37.4653 36.2967V30.4566C38.9995 28.17 39.7772 25.8399 39.7772 23.5224C39.7705 21.2454 38.9872 19.0389 37.5567 17.2674C37.3098 16.9568 37.047 16.6592 36.7692 16.3758H49.5084C49.6902 16.3757 49.8703 16.3404 50.0386 16.2717C56.3414 13.7053 62.3222 15.7472 64.973 19.0842C67.1245 21.7983 67.0978 25.2717 64.9294 28.6847V28.6875Z" fill="black"/>
<path d="M15.5625 24.5247C15.1895 24.5247 14.8319 24.6728 14.5681 24.9365C14.3044 25.2003 14.1562 25.5579 14.1562 25.9309C14.1562 26.3039 14.3044 26.6616 14.5681 26.9253C14.8319 27.189 15.1895 27.3372 15.5625 27.3372C15.9355 27.3372 16.2931 27.189 16.5569 26.9253C16.8206 26.6616 16.9688 26.3039 16.9688 25.9309C16.9688 25.5579 16.8206 25.2003 16.5569 24.9365C16.2931 24.6728 15.9355 24.5247 15.5625 24.5247Z" fill="black"/>
<path d="M46.9883 56.9531C46.6153 56.9531 46.2576 57.1013 45.9939 57.365C45.7302 57.6287 45.582 57.9864 45.582 58.3594C45.582 58.7323 45.7302 59.09 45.9939 59.3537C46.2576 59.6175 46.6153 59.7656 46.9883 59.7656C47.3612 59.7656 47.7189 59.6175 47.9826 59.3537C48.2464 59.09 48.3945 58.7323 48.3945 58.3594C48.3945 57.9864 48.2464 57.6287 47.9826 57.365C47.7189 57.1013 47.3612 56.9531 46.9883 56.9531Z" fill="black"/>
</g>
<defs>
<clipPath id="clip0_1949:12687">
<rect width="72" height="72" fill="white"/>
</clipPath>
</defs>
</svg>
