<svg width="10" height="20" viewBox="0 0 10 20" fill="none" xmlns="http://www.w3.org/2000/svg">
<circle cx="5" cy="8" r="4.5" stroke="black"/>
<path d="M5.26172 11.125C4.72526 11.125 4.25781 10.9909 3.85938 10.7227C3.46354 10.4544 3.15625 10.0872 2.9375 9.62109C2.71875 9.15495 2.60938 8.6237 2.60938 8.02734C2.60938 7.42578 2.72005 6.89062 2.94141 6.42187C3.16536 5.95312 3.47526 5.58594 3.87109 5.32031C4.26693 5.05208 4.72656 4.91797 5.25 4.91797C5.65104 4.91797 6.01432 4.99609 6.33984 5.15234C6.66536 5.30599 6.93359 5.52344 7.14453 5.80469C7.35807 6.08333 7.49219 6.40885 7.54688 6.78125H6.84375C6.77083 6.44271 6.59505 6.15365 6.31641 5.91406C6.04036 5.67187 5.6888 5.55078 5.26172 5.55078C4.87891 5.55078 4.54036 5.65495 4.24609 5.86328C3.95182 6.06901 3.72135 6.35677 3.55469 6.72656C3.39063 7.09375 3.30859 7.51953 3.30859 8.00391C3.30859 8.49089 3.38932 8.92187 3.55078 9.29687C3.71224 9.66927 3.9388 9.96094 4.23047 10.1719C4.52474 10.3828 4.86849 10.4883 5.26172 10.4883C5.52734 10.4883 5.76953 10.4388 5.98828 10.3398C6.20964 10.2383 6.39453 10.0951 6.54297 9.91016C6.69401 9.72526 6.79557 9.50521 6.84766 9.25H7.55078C7.4987 9.61198 7.36979 9.9349 7.16406 10.2188C6.96094 10.5 6.69661 10.7214 6.37109 10.8828C6.04818 11.0443 5.67839 11.125 5.26172 11.125Z" fill="black"/>
</svg>
