<svg width="54" height="534" viewBox="0 0 54 534" fill="none" xmlns="http://www.w3.org/2000/svg">
<line x1="28" y1="23" x2="28" y2="534" stroke="#6FC957" stroke-width="2"/>
<circle cx="27" cy="27" r="27" fill="#6FC957"/>
<circle cx="27" cy="267" r="26.5" fill="white" stroke="#6FC957"/>
<circle cx="27" cy="147" r="26.5" fill="white" stroke="#6FC957"/>
<circle cx="27" cy="387" r="26.5" fill="white" stroke="#6FC957"/>
<circle cx="27" cy="507" r="26.5" fill="white" stroke="#6FC957"/>
<path d="M32.15 33.45V35H23.675V33.45H27.225V22.75C27.0917 22.95 26.8667 23.1667 26.55 23.4C26.2333 23.6333 25.8667 23.85 25.45 24.05C25.05 24.25 24.65 24.4167 24.25 24.55C23.85 24.6833 23.4833 24.75 23.15 24.75V23.1C23.5333 23.1 23.95 22.9917 24.4 22.775C24.85 22.5583 25.2833 22.3083 25.7 22.025C26.1167 21.7417 26.4667 21.475 26.75 21.225C27.0333 20.975 27.1917 20.8083 27.225 20.725H28.975V33.45H32.15Z" fill="white"/>
<path d="M21 155C21 154.3 21.0583 153.658 21.175 153.075C21.2917 152.475 21.4917 151.908 21.775 151.375C22.075 150.842 22.4833 150.342 23 149.875C23.5333 149.392 24.2083 148.933 25.025 148.5C25.6083 148.167 26.1583 147.875 26.675 147.625C27.1917 147.358 27.65 147.1 28.05 146.85C28.45 146.583 28.7583 146.3 28.975 146C29.2083 145.7 29.325 145.358 29.325 144.975C29.325 144.608 29.225 144.267 29.025 143.95C28.825 143.633 28.525 143.383 28.125 143.2C27.725 143 27.2417 142.9 26.675 142.9C26.225 142.9 25.8083 142.958 25.425 143.075C25.0583 143.192 24.7167 143.35 24.4 143.55C24.1 143.733 23.825 143.942 23.575 144.175C23.325 144.392 23.1083 144.608 22.925 144.825L21.2 142.85C21.3667 142.65 21.625 142.425 21.975 142.175C22.3417 141.908 22.775 141.65 23.275 141.4C23.7917 141.133 24.375 140.917 25.025 140.75C25.675 140.567 26.3833 140.475 27.15 140.475C28.2333 140.475 29.1583 140.658 29.925 141.025C30.6917 141.375 31.275 141.867 31.675 142.5C32.0917 143.117 32.3 143.817 32.3 144.6C32.3 145.217 32.175 145.758 31.925 146.225C31.6917 146.692 31.3833 147.108 31 147.475C30.6167 147.825 30.2083 148.133 29.775 148.4C29.3583 148.65 28.9667 148.875 28.6 149.075C27.95 149.392 27.3833 149.683 26.9 149.95C26.4333 150.217 26.0333 150.483 25.7 150.75C25.3667 151 25.0917 151.267 24.875 151.55C24.6583 151.817 24.475 152.142 24.325 152.525H32.575V155H21Z" fill="#013856"/>
<path d="M29.225 269.1C29.925 269.217 30.5333 269.483 31.05 269.9C31.5833 270.3 31.9917 270.817 32.275 271.45C32.5583 272.067 32.7 272.767 32.7 273.55C32.7 274.583 32.4417 275.483 31.925 276.25C31.425 277.017 30.7083 277.608 29.775 278.025C28.8417 278.458 27.7417 278.675 26.475 278.675C25.2083 278.675 24.0917 278.45 23.125 278C22.1583 277.567 21.3833 276.933 20.8 276.1L22.475 274.2C22.875 274.8 23.3917 275.275 24.025 275.625C24.6583 275.992 25.4583 276.175 26.425 276.175C27.5083 276.175 28.35 275.942 28.95 275.475C29.55 275.008 29.85 274.308 29.85 273.375C29.85 272.408 29.5167 271.65 28.85 271.1C28.2 270.55 27.2167 270.275 25.9 270.275H25.225V268.125H25.975C27.0917 268.125 27.95 267.867 28.55 267.35C29.15 266.817 29.45 266.15 29.45 265.35C29.45 264.817 29.325 264.383 29.075 264.05C28.8417 263.7 28.5083 263.442 28.075 263.275C27.6417 263.108 27.1417 263.025 26.575 263.025C25.725 263.025 24.975 263.208 24.325 263.575C23.675 263.942 23.1583 264.467 22.775 265.15L21.05 263.275C21.3833 262.742 21.8417 262.275 22.425 261.875C23.0083 261.475 23.675 261.167 24.425 260.95C25.1917 260.717 26 260.6 26.85 260.6C27.95 260.6 28.9167 260.783 29.75 261.15C30.5833 261.517 31.225 262.033 31.675 262.7C32.1417 263.367 32.375 264.15 32.375 265.05C32.375 265.7 32.25 266.317 32 266.9C31.75 267.467 31.3833 267.95 30.9 268.35C30.4167 268.733 29.8583 268.983 29.225 269.1Z" fill="#013856"/>
<path d="M28.225 396.175V392.2H20.55V389.75L29.1 378.725H30.975V389.7H33.175V392.2H30.975V396.175H28.225ZM23.35 389.7H28.525V382.925L23.35 389.7Z" fill="#013856"/>
<path d="M26.55 518.725C25.2667 518.725 24.1167 518.433 23.1 517.85C22.0833 517.283 21.3083 516.508 20.775 515.525L22.425 513.95C22.8917 514.667 23.4917 515.233 24.225 515.65C24.9583 516.083 25.7417 516.3 26.575 516.3C27.2583 516.3 27.8667 516.15 28.4 515.85C28.9333 515.567 29.35 515.167 29.65 514.65C29.9667 514.117 30.125 513.508 30.125 512.825C30.125 512.158 29.975 511.575 29.675 511.075C29.375 510.558 28.975 510.167 28.475 509.9C27.975 509.617 27.4 509.475 26.75 509.475C26.1167 509.475 25.525 509.617 24.975 509.9C24.425 510.183 23.975 510.583 23.625 511.1H21.2L23.225 500.725H31.9V503.25H25.225L24.325 508.1C24.6083 507.8 24.9917 507.558 25.475 507.375C25.9583 507.175 26.5083 507.075 27.125 507.075C28.2417 507.075 29.2333 507.325 30.1 507.825C30.9833 508.308 31.675 508.975 32.175 509.825C32.6917 510.675 32.95 511.658 32.95 512.775C32.95 513.958 32.6667 514.992 32.1 515.875C31.5333 516.775 30.7667 517.475 29.8 517.975C28.8333 518.475 27.75 518.725 26.55 518.725Z" fill="#013856"/>
</svg>
